<?xml version="1.0" encoding="UTF-8" standalone="no"?>
<!DOCTYPE svg PUBLIC "-//W3C//DTD SVG 1.1//EN" "http://www.w3.org/Graphics/SVG/1.1/DTD/svg11.dtd">
<svg width="100%" height="100%" viewBox="0 0 100 100" version="1.1" xmlns="http://www.w3.org/2000/svg" xmlns:xlink="http://www.w3.org/1999/xlink" xml:space="preserve" style="fill-rule:evenodd;clip-rule:evenodd;stroke-linejoin:round;stroke-miterlimit:1.41421;">
    <g>
        <g>
            <g transform="matrix(0.286544,0,0,0.286544,4.0544,-61.6074)">
                <path d="M129.678,320.689C127.005,319.443 125.148,317.158 124.36,314.539C126.873,313.459 129.816,313.413 132.489,314.66C135.163,315.906 137.019,318.191 137.807,320.809C135.295,321.889 132.351,321.936 129.678,320.689" style="fill:rgb(28,58,80);fill-rule:nonzero;"/>
            </g>
            <g transform="matrix(0.286544,0,0,0.286544,4.0544,-61.6074)">
                <path d="M130.499,309.191C129.252,311.864 126.968,313.721 124.349,314.508C123.269,311.996 123.223,309.053 124.469,306.379C125.716,303.706 128.001,301.849 130.619,301.062C131.699,303.574 131.746,306.518 130.499,309.191" style="fill:rgb(28,58,80);fill-rule:nonzero;"/>
            </g>
            <g transform="matrix(0.286544,0,0,0.286544,4.0544,-61.6074)">
                <path d="M119.088,326.068C116.239,325.305 114.014,323.377 112.783,320.935C115.07,319.435 117.961,318.878 120.81,319.642C123.659,320.405 125.884,322.333 127.114,324.775C124.828,326.275 121.937,326.831 119.088,326.068" style="fill:rgb(28,58,80);fill-rule:nonzero;"/>
            </g>
            <g transform="matrix(0.286544,0,0,0.286544,4.0544,-61.6074)">
                <path d="M117.9,314.602C117.136,317.451 115.209,319.676 112.767,320.907C111.267,318.62 110.71,315.729 111.474,312.88C112.237,310.031 114.165,307.806 116.607,306.576C118.107,308.862 118.663,311.753 117.9,314.602" style="fill:rgb(28,58,80);fill-rule:nonzero;"/>
            </g>
            <g transform="matrix(0.286544,0,0,0.286544,4.0544,-61.6074)">
                <path d="M109.586,333.219C106.648,332.962 104.121,331.45 102.486,329.259C104.477,327.385 107.227,326.335 110.166,326.591C113.104,326.849 115.63,328.36 117.266,330.552C115.275,332.426 112.524,333.476 109.586,333.219" style="fill:rgb(28,58,80);fill-rule:nonzero;"/>
            </g>
            <g transform="matrix(0.286544,0,0,0.286544,4.0544,-61.6074)">
                <path d="M106.425,322.133C106.168,325.071 104.656,327.598 102.465,329.233C100.591,327.242 99.54,324.492 99.797,321.553C100.055,318.615 101.566,316.089 103.758,314.453C105.632,316.444 106.682,319.195 106.425,322.133" style="fill:rgb(28,58,80);fill-rule:nonzero;"/>
            </g>
            <g transform="matrix(0.286544,0,0,0.286544,4.0544,-61.6074)">
                <path d="M101.461,341.924C98.523,342.181 95.772,341.131 93.781,339.257C95.417,337.065 97.943,335.554 100.881,335.296C103.82,335.039 106.57,336.09 108.561,337.964C106.925,340.155 104.399,341.667 101.461,341.924" style="fill:rgb(28,58,80);fill-rule:nonzero;"/>
            </g>
            <g transform="matrix(0.286544,0,0,0.286544,4.0544,-61.6074)">
                <path d="M96.423,331.556C96.68,334.494 95.63,337.245 93.756,339.236C91.564,337.599 90.053,335.073 89.796,332.136C89.539,329.197 90.589,326.447 92.463,324.455C94.654,326.091 96.166,328.618 96.423,331.556" style="fill:rgb(28,58,80);fill-rule:nonzero;"/>
            </g>
            <g transform="matrix(0.286544,0,0,0.286544,4.0544,-61.6074)">
                <path d="M94.959,351.918C92.11,352.681 89.219,352.125 86.932,350.625C88.163,348.183 90.388,346.255 93.237,345.492C96.086,344.728 98.977,345.285 101.264,346.785C100.033,349.227 97.808,351.155 94.959,351.918" style="fill:rgb(28,58,80);fill-rule:nonzero;"/>
            </g>
            <g transform="matrix(0.286544,0,0,0.286544,4.0544,-61.6074)">
                <path d="M88.198,342.583C88.962,345.432 88.405,348.323 86.905,350.609C84.463,349.379 82.535,347.154 81.772,344.305C81.008,341.456 81.565,338.565 83.065,336.278C85.507,337.509 87.435,339.734 88.198,342.583" style="fill:rgb(28,58,80);fill-rule:nonzero;"/>
            </g>
            <g transform="matrix(0.286544,0,0,0.286544,4.0544,-61.6074)">
                <path d="M90.28,362.899C87.607,364.146 84.662,364.099 82.15,363.019C82.938,360.401 84.795,358.116 87.468,356.87C90.141,355.623 93.084,355.669 95.596,356.749C94.81,359.368 92.953,361.652 90.28,362.899" style="fill:rgb(28,58,80);fill-rule:nonzero;"/>
            </g>
            <g transform="matrix(0.286544,0,0,0.286544,4.0544,-61.6074)">
                <path d="M82,354.879C83.247,357.552 83.2,360.496 82.12,363.008C79.502,362.221 77.217,360.364 75.971,357.691C74.724,355.017 74.77,352.074 75.85,349.562C78.469,350.349 80.753,352.206 82,354.879" style="fill:rgb(28,58,80);fill-rule:nonzero;"/>
            </g>
            <g transform="matrix(0.286544,0,0,0.286544,4.0544,-61.6074)">
                <path d="M87.563,374.533C85.147,376.225 82.24,376.69 79.578,376.063C79.899,373.347 81.331,370.775 83.747,369.083C86.163,367.391 89.07,366.926 91.732,367.553C91.411,370.269 89.979,372.841 87.563,374.533" style="fill:rgb(28,58,80);fill-rule:nonzero;"/>
            </g>
            <g transform="matrix(0.286544,0,0,0.286544,4.0544,-61.6074)">
                <path d="M78.017,368.072C79.709,370.488 80.175,373.395 79.547,376.057C76.832,375.736 74.259,374.304 72.567,371.888C70.875,369.472 70.41,366.565 71.037,363.903C73.753,364.224 76.325,365.656 78.017,368.072" style="fill:rgb(28,58,80);fill-rule:nonzero;"/>
            </g>
            <g transform="matrix(0.286544,0,0,0.286544,4.0544,-61.6074)">
                <path d="M86.894,386.465C84.808,388.551 82.026,389.514 79.296,389.358C79.141,386.628 80.104,383.847 82.19,381.761C84.275,379.675 87.057,378.712 89.787,378.867C89.943,381.597 88.98,384.379 86.894,386.465" style="fill:rgb(28,58,80);fill-rule:nonzero;"/>
            </g>
            <g transform="matrix(0.286544,0,0,0.286544,4.0544,-61.6074)">
                <path d="M76.37,381.76C78.456,383.846 79.419,386.628 79.263,389.358C76.533,389.513 73.752,388.55 71.666,386.464C69.58,384.378 68.617,381.597 68.772,378.867C71.502,378.711 74.284,379.674 76.37,381.76" style="fill:rgb(28,58,80);fill-rule:nonzero;"/>
            </g>
            <g transform="matrix(0.286544,0,0,0.286544,4.0544,-61.6074)">
                <path d="M88.298,398.243C86.606,400.659 84.034,402.091 81.318,402.412C80.691,399.75 81.157,396.843 82.848,394.427C84.54,392.011 87.112,390.579 89.828,390.258C90.455,392.92 89.99,395.827 88.298,398.243" style="fill:rgb(28,58,80);fill-rule:nonzero;"/>
            </g>
            <g transform="matrix(0.286544,0,0,0.286544,4.0544,-61.6074)">
                <path d="M77.118,395.438C79.534,397.13 80.966,399.702 81.287,402.418C78.625,403.045 75.718,402.58 73.302,400.888C70.886,399.196 69.454,396.623 69.133,393.908C71.795,393.281 74.702,393.746 77.118,395.438" style="fill:rgb(28,58,80);fill-rule:nonzero;"/>
            </g>
            <g transform="matrix(0.286544,0,0,0.286544,4.0544,-61.6074)">
                <path d="M91.742,409.6C90.496,412.273 88.211,414.13 85.592,414.918C84.512,412.405 84.466,409.462 85.713,406.788C86.959,404.115 89.244,402.258 91.862,401.471C92.942,403.983 92.989,406.927 91.742,409.6" style="fill:rgb(28,58,80);fill-rule:nonzero;"/>
            </g>
            <g transform="matrix(0.286544,0,0,0.286544,4.0544,-61.6074)">
                <path d="M80.245,408.779C82.918,410.026 84.775,412.31 85.563,414.929C83.05,416.009 80.107,416.055 77.433,414.809C74.76,413.562 72.903,411.277 72.116,408.659C74.628,407.579 77.572,407.532 80.245,408.779" style="fill:rgb(28,58,80);fill-rule:nonzero;"/>
            </g>
            <g transform="matrix(0.286544,0,0,0.286544,4.0544,-61.6074)">
                <path d="M97.121,420.19C96.358,423.039 94.43,425.264 91.988,426.495C90.488,424.208 89.931,421.317 90.695,418.468C91.458,415.619 93.386,413.394 95.828,412.164C97.328,414.45 97.884,417.341 97.121,420.19" style="fill:rgb(28,58,80);fill-rule:nonzero;"/>
            </g>
            <g transform="matrix(0.286544,0,0,0.286544,4.0544,-61.6074)">
                <path d="M85.656,421.378C88.505,422.141 90.73,424.069 91.961,426.511C89.674,428.011 86.783,428.568 83.934,427.804C81.085,427.041 78.86,425.113 77.63,422.671C79.916,421.171 82.807,420.615 85.656,421.378" style="fill:rgb(28,58,80);fill-rule:nonzero;"/>
            </g>
            <g transform="matrix(0.286544,0,0,0.286544,4.0544,-61.6074)">
                <path d="M104.272,429.692C104.015,432.63 102.503,435.157 100.312,436.792C98.438,434.801 97.387,432.051 97.645,429.112C97.902,426.174 99.414,423.648 101.605,422.012C103.479,424.003 104.529,426.754 104.272,429.692" style="fill:rgb(28,58,80);fill-rule:nonzero;"/>
            </g>
            <g transform="matrix(0.286544,0,0,0.286544,4.0544,-61.6074)">
                <path d="M93.187,432.853C96.125,433.11 98.652,434.622 100.287,436.813C98.296,438.687 95.546,439.738 92.607,439.481C89.669,439.224 87.143,437.712 85.507,435.52C87.498,433.646 90.249,432.596 93.187,432.853" style="fill:rgb(28,58,80);fill-rule:nonzero;"/>
            </g>
            <g transform="matrix(0.286544,0,0,0.286544,4.0544,-61.6074)">
                <path d="M112.977,437.818C113.234,440.756 112.184,443.507 110.31,445.498C108.118,443.861 106.607,441.335 106.349,438.397C106.092,435.46 107.143,432.709 109.017,430.717C111.208,432.353 112.72,434.88 112.977,437.818" style="fill:rgb(28,58,80);fill-rule:nonzero;"/>
            </g>
            <g transform="matrix(0.286544,0,0,0.286544,4.0544,-61.6074)">
                <path d="M102.609,442.855C105.547,442.598 108.298,443.648 110.289,445.522C108.653,447.714 106.127,449.225 103.189,449.483C100.25,449.74 97.5,448.689 95.509,446.815C97.144,444.624 99.671,443.112 102.609,442.855" style="fill:rgb(28,58,80);fill-rule:nonzero;"/>
            </g>
            <g transform="matrix(0.286544,0,0,0.286544,4.0544,-61.6074)">
                <path d="M122.972,444.319C123.735,447.168 123.179,450.059 121.679,452.346C119.237,451.115 117.309,448.89 116.546,446.041C115.782,443.192 116.339,440.301 117.839,438.014C120.281,439.245 122.209,441.47 122.972,444.319" style="fill:rgb(28,58,80);fill-rule:nonzero;"/>
            </g>
            <g transform="matrix(0.286544,0,0,0.286544,4.0544,-61.6074)">
                <path d="M113.636,451.08C116.485,450.317 119.376,450.873 121.662,452.373C120.432,454.815 118.207,456.743 115.358,457.506C112.509,458.27 109.618,457.713 107.331,456.213C108.562,453.771 110.787,451.844 113.636,451.08" style="fill:rgb(28,58,80);fill-rule:nonzero;"/>
            </g>
            <g transform="matrix(0.286544,0,0,0.286544,4.0544,-61.6074)">
                <path d="M133.953,448.999C135.2,451.672 135.153,454.616 134.073,457.128C131.455,456.341 129.17,454.484 127.924,451.811C126.677,449.137 126.723,446.194 127.803,443.681C130.422,444.469 132.706,446.326 133.953,448.999" style="fill:rgb(28,58,80);fill-rule:nonzero;"/>
            </g>
            <g transform="matrix(0.286544,0,0,0.286544,4.0544,-61.6074)">
                <path d="M125.933,457.279C128.606,456.032 131.55,456.079 134.062,457.159C133.275,459.777 131.418,462.062 128.745,463.309C126.071,464.555 123.128,464.509 120.616,463.429C121.403,460.81 123.26,458.525 125.933,457.279" style="fill:rgb(28,58,80);fill-rule:nonzero;"/>
            </g>
            <g transform="matrix(0.286544,0,0,0.286544,4.0544,-61.6074)">
                <path d="M143.665,310.911C140.893,311.92 137.965,311.617 135.556,310.323C136.569,307.782 138.618,305.668 141.39,304.659C144.161,303.651 147.09,303.953 149.498,305.248C148.485,307.788 146.437,309.902 143.665,310.911" style="fill:rgb(28,58,80);fill-rule:nonzero;"/>
            </g>
        </g>
        <g transform="matrix(0.286544,0,0,0.286544,4.0544,-61.6074)">
            <path d="M169.32,479.742C155.764,466.331 143.165,461.043 133.844,457.884C132.947,457.579 132.113,457.297 131.355,457.032C99.671,445.942 78.382,416.616 78.382,384.058C78.382,347.42 105.31,315.461 142.41,308.065L142.645,309.246C106.106,316.53 79.587,347.993 79.587,384.058C79.587,416.105 100.55,444.974 131.752,455.894C132.508,456.159 133.337,456.44 134.231,456.744C143.649,459.936 160.414,465.28 174.167,478.886L169.32,479.742Z" style="fill:rgb(139,160,175);fill-rule:nonzero;"/>
        </g>
        <g>
            <g transform="matrix(0.286544,0,0,0.286544,4.0544,-61.6074)">
                <path d="M186.822,320.689C189.495,319.443 191.352,317.158 192.139,314.539C189.627,313.459 186.684,313.413 184.01,314.66C181.337,315.906 179.48,318.191 178.693,320.809C181.205,321.889 184.149,321.936 186.822,320.689" style="fill:rgb(28,58,80);fill-rule:nonzero;"/>
            </g>
            <g transform="matrix(0.286544,0,0,0.286544,4.0544,-61.6074)">
                <path d="M186.001,309.191C187.248,311.864 189.532,313.721 192.151,314.508C193.231,311.996 193.277,309.053 192.03,306.379C190.784,303.706 188.499,301.849 185.881,301.062C184.801,303.574 184.754,306.518 186.001,309.191" style="fill:rgb(28,58,80);fill-rule:nonzero;"/>
            </g>
            <g transform="matrix(0.286544,0,0,0.286544,4.0544,-61.6074)">
                <path d="M197.412,326.068C200.261,325.305 202.486,323.377 203.717,320.935C201.43,319.435 198.539,318.878 195.69,319.642C192.841,320.405 190.616,322.333 189.385,324.775C191.672,326.275 194.563,326.831 197.412,326.068" style="fill:rgb(28,58,80);fill-rule:nonzero;"/>
            </g>
            <g transform="matrix(0.286544,0,0,0.286544,4.0544,-61.6074)">
                <path d="M198.6,314.602C199.363,317.451 201.291,319.676 203.733,320.907C205.233,318.62 205.789,315.729 205.026,312.88C204.263,310.031 202.335,307.806 199.893,306.576C198.393,308.862 197.836,311.753 198.6,314.602" style="fill:rgb(28,58,80);fill-rule:nonzero;"/>
            </g>
            <g transform="matrix(0.286544,0,0,0.286544,4.0544,-61.6074)">
                <path d="M206.914,333.219C209.852,332.962 212.379,331.45 214.014,329.259C212.023,327.385 209.273,326.335 206.334,326.591C203.396,326.849 200.87,328.36 199.234,330.552C201.225,332.426 203.976,333.476 206.914,333.219" style="fill:rgb(28,58,80);fill-rule:nonzero;"/>
            </g>
            <g transform="matrix(0.286544,0,0,0.286544,4.0544,-61.6074)">
                <path d="M210.075,322.133C210.332,325.071 211.844,327.598 214.035,329.233C215.909,327.242 216.96,324.492 216.703,321.553C216.445,318.615 214.934,316.089 212.742,314.453C210.868,316.444 209.818,319.195 210.075,322.133" style="fill:rgb(28,58,80);fill-rule:nonzero;"/>
            </g>
            <g transform="matrix(0.286544,0,0,0.286544,4.0544,-61.6074)">
                <path d="M215.039,341.924C217.977,342.181 220.728,341.131 222.719,339.257C221.083,337.065 218.557,335.554 215.619,335.296C212.68,335.039 209.93,336.09 207.939,337.964C209.574,340.155 212.101,341.667 215.039,341.924" style="fill:rgb(28,58,80);fill-rule:nonzero;"/>
            </g>
            <g transform="matrix(0.286544,0,0,0.286544,4.0544,-61.6074)">
                <path d="M220.077,331.556C219.82,334.494 220.87,337.245 222.744,339.236C224.936,337.599 226.447,335.073 226.704,332.136C226.962,329.197 225.911,326.447 224.037,324.455C221.846,326.091 220.334,328.618 220.077,331.556" style="fill:rgb(28,58,80);fill-rule:nonzero;"/>
            </g>
            <g transform="matrix(0.286544,0,0,0.286544,4.0544,-61.6074)">
                <path d="M221.541,351.918C224.39,352.681 227.281,352.125 229.568,350.625C228.337,348.183 226.112,346.255 223.263,345.492C220.414,344.728 217.523,345.285 215.236,346.785C216.467,349.227 218.692,351.155 221.541,351.918" style="fill:rgb(28,58,80);fill-rule:nonzero;"/>
            </g>
            <g transform="matrix(0.286544,0,0,0.286544,4.0544,-61.6074)">
                <path d="M228.302,342.583C227.538,345.432 228.095,348.323 229.595,350.609C232.037,349.379 233.965,347.154 234.728,344.305C235.491,341.456 234.935,338.565 233.435,336.278C230.993,337.509 229.065,339.734 228.302,342.583" style="fill:rgb(28,58,80);fill-rule:nonzero;"/>
            </g>
            <g transform="matrix(0.286544,0,0,0.286544,4.0544,-61.6074)">
                <path d="M226.22,362.899C228.893,364.146 231.837,364.099 234.349,363.019C233.563,360.401 231.706,358.116 229.033,356.87C226.359,355.623 223.415,355.669 220.903,356.749C221.69,359.368 223.547,361.652 226.22,362.899" style="fill:rgb(28,58,80);fill-rule:nonzero;"/>
            </g>
            <g transform="matrix(0.286544,0,0,0.286544,4.0544,-61.6074)">
                <path d="M234.5,354.879C233.254,357.552 233.3,360.496 234.38,363.008C236.998,362.221 239.283,360.364 240.53,357.691C241.776,355.017 241.73,352.074 240.65,349.562C238.031,350.349 235.747,352.206 234.5,354.879" style="fill:rgb(28,58,80);fill-rule:nonzero;"/>
            </g>
            <g transform="matrix(0.286544,0,0,0.286544,4.0544,-61.6074)">
                <path d="M228.937,374.533C231.353,376.225 234.26,376.69 236.922,376.063C236.601,373.347 235.169,370.775 232.753,369.083C230.337,367.391 227.43,366.926 224.768,367.553C225.089,370.269 226.521,372.841 228.937,374.533" style="fill:rgb(28,58,80);fill-rule:nonzero;"/>
            </g>
            <g transform="matrix(0.286544,0,0,0.286544,4.0544,-61.6074)">
                <path d="M238.484,368.072C236.791,370.488 236.326,373.395 236.954,376.057C239.669,375.736 242.242,374.304 243.933,371.888C245.624,369.472 246.091,366.565 245.463,363.903C242.748,364.224 240.176,365.656 238.484,368.072" style="fill:rgb(28,58,80);fill-rule:nonzero;"/>
            </g>
            <g transform="matrix(0.286544,0,0,0.286544,4.0544,-61.6074)">
                <path d="M229.606,386.465C231.692,388.551 234.474,389.514 237.204,389.358C237.359,386.628 236.396,383.847 234.31,381.761C232.225,379.675 229.443,378.712 226.713,378.867C226.557,381.597 227.52,384.379 229.606,386.465" style="fill:rgb(28,58,80);fill-rule:nonzero;"/>
            </g>
            <g transform="matrix(0.286544,0,0,0.286544,4.0544,-61.6074)">
                <path d="M240.13,381.76C238.044,383.846 237.081,386.628 237.237,389.358C239.967,389.513 242.748,388.55 244.834,386.464C246.92,384.378 247.883,381.597 247.728,378.867C244.998,378.711 242.216,379.674 240.13,381.76" style="fill:rgb(28,58,80);fill-rule:nonzero;"/>
            </g>
            <g transform="matrix(0.286544,0,0,0.286544,4.0544,-61.6074)">
                <path d="M228.202,398.243C229.894,400.659 232.466,402.091 235.182,402.412C235.809,399.75 235.344,396.843 233.652,394.427C231.96,392.011 229.388,390.579 226.672,390.258C226.045,392.92 226.51,395.827 228.202,398.243" style="fill:rgb(28,58,80);fill-rule:nonzero;"/>
            </g>
            <g transform="matrix(0.286544,0,0,0.286544,4.0544,-61.6074)">
                <path d="M239.382,395.438C236.966,397.13 235.534,399.702 235.213,402.418C237.875,403.045 240.782,402.58 243.198,400.888C245.614,399.196 247.046,396.623 247.367,393.908C244.705,393.281 241.798,393.746 239.382,395.438" style="fill:rgb(28,58,80);fill-rule:nonzero;"/>
            </g>
            <g transform="matrix(0.286544,0,0,0.286544,4.0544,-61.6074)">
                <path d="M224.758,409.6C226.004,412.273 228.289,414.13 230.908,414.918C231.988,412.405 232.034,409.462 230.787,406.788C229.541,404.115 227.256,402.258 224.638,401.471C223.558,403.983 223.511,406.927 224.758,409.6" style="fill:rgb(28,58,80);fill-rule:nonzero;"/>
            </g>
            <g transform="matrix(0.286544,0,0,0.286544,4.0544,-61.6074)">
                <path d="M236.255,408.779C233.582,410.026 231.725,412.31 230.937,414.929C233.45,416.009 236.393,416.055 239.067,414.809C241.74,413.562 243.597,411.277 244.384,408.659C241.872,407.579 238.928,407.532 236.255,408.779" style="fill:rgb(28,58,80);fill-rule:nonzero;"/>
            </g>
            <g transform="matrix(0.286544,0,0,0.286544,4.0544,-61.6074)">
                <path d="M219.379,420.19C220.143,423.039 222.07,425.264 224.512,426.495C226.012,424.208 226.569,421.317 225.805,418.468C225.042,415.619 223.114,413.394 220.672,412.164C219.172,414.45 218.616,417.341 219.379,420.19" style="fill:rgb(28,58,80);fill-rule:nonzero;"/>
            </g>
            <g transform="matrix(0.286544,0,0,0.286544,4.0544,-61.6074)">
                <path d="M230.844,421.378C227.995,422.141 225.77,424.069 224.539,426.511C226.826,428.011 229.717,428.568 232.566,427.804C235.415,427.041 237.64,425.113 238.87,422.671C236.584,421.171 233.693,420.615 230.844,421.378" style="fill:rgb(28,58,80);fill-rule:nonzero;"/>
            </g>
            <g transform="matrix(0.286544,0,0,0.286544,4.0544,-61.6074)">
                <path d="M212.228,429.692C212.485,432.63 213.997,435.157 216.188,436.792C218.062,434.801 219.113,432.051 218.856,429.112C218.598,426.174 217.087,423.648 214.895,422.012C213.021,424.003 211.971,426.754 212.228,429.692" style="fill:rgb(28,58,80);fill-rule:nonzero;"/>
            </g>
            <g transform="matrix(0.286544,0,0,0.286544,4.0544,-61.6074)">
                <path d="M223.313,432.853C220.375,433.11 217.848,434.622 216.213,436.813C218.204,438.687 220.954,439.738 223.893,439.481C226.831,439.224 229.357,437.712 230.993,435.52C229.002,433.646 226.251,432.596 223.313,432.853" style="fill:rgb(28,58,80);fill-rule:nonzero;"/>
            </g>
            <g transform="matrix(0.286544,0,0,0.286544,4.0544,-61.6074)">
                <path d="M203.523,437.818C203.266,440.756 204.316,443.507 206.19,445.498C208.381,443.861 209.893,441.335 210.15,438.397C210.408,435.46 209.357,432.709 207.483,430.717C205.292,432.353 203.78,434.88 203.523,437.818" style="fill:rgb(28,58,80);fill-rule:nonzero;"/>
            </g>
            <g transform="matrix(0.286544,0,0,0.286544,4.0544,-61.6074)">
                <path d="M213.891,442.855C210.953,442.598 208.202,443.648 206.211,445.522C207.847,447.714 210.373,449.225 213.311,449.483C216.25,449.74 219,448.689 220.991,446.815C219.356,444.624 216.829,443.112 213.891,442.855" style="fill:rgb(28,58,80);fill-rule:nonzero;"/>
            </g>
            <g transform="matrix(0.286544,0,0,0.286544,4.0544,-61.6074)">
                <path d="M193.528,444.319C192.765,447.168 193.321,450.059 194.821,452.346C197.263,451.115 199.191,448.89 199.954,446.041C200.718,443.192 200.161,440.301 198.661,438.014C196.219,439.245 194.292,441.47 193.528,444.319" style="fill:rgb(28,58,80);fill-rule:nonzero;"/>
            </g>
            <g transform="matrix(0.286544,0,0,0.286544,4.0544,-61.6074)">
                <path d="M202.864,451.08C200.015,450.317 197.124,450.873 194.838,452.373C196.068,454.815 198.293,456.743 201.142,457.506C203.991,458.27 206.882,457.713 209.169,456.213C207.938,453.771 205.713,451.844 202.864,451.08" style="fill:rgb(28,58,80);fill-rule:nonzero;"/>
            </g>
            <g transform="matrix(0.286544,0,0,0.286544,4.0544,-61.6074)">
                <path d="M182.547,448.999C181.301,451.672 181.348,454.616 182.427,457.128C185.045,456.341 187.33,454.484 188.576,451.811C189.824,449.137 189.777,446.194 188.698,443.681C186.079,444.469 183.794,446.326 182.547,448.999" style="fill:rgb(28,58,80);fill-rule:nonzero;"/>
            </g>
            <g transform="matrix(0.286544,0,0,0.286544,4.0544,-61.6074)">
                <path d="M190.567,457.279C187.894,456.032 184.95,456.079 182.438,457.159C183.226,459.777 185.082,462.062 187.755,463.309C190.429,464.555 193.372,464.509 195.884,463.429C195.097,460.81 193.24,458.525 190.567,457.279" style="fill:rgb(28,58,80);fill-rule:nonzero;"/>
            </g>
            <g transform="matrix(0.286544,0,0,0.286544,4.0544,-61.6074)">
                <path d="M172.835,310.911C175.607,311.92 178.535,311.617 180.944,310.323C179.931,307.782 177.882,305.668 175.11,304.659C172.339,303.651 169.41,303.953 167.002,305.248C168.014,307.788 170.063,309.902 172.835,310.911" style="fill:rgb(28,58,80);fill-rule:nonzero;"/>
            </g>
        </g>
        <g transform="matrix(0.286544,0,0,0.286544,4.0544,-61.6074)">
            <path d="M147.18,479.742L142.333,478.886C156.085,465.28 172.85,459.936 182.268,456.744C183.161,456.44 183.991,456.159 184.747,455.894C215.95,444.974 236.913,416.105 236.913,384.058C236.913,347.993 210.394,316.53 173.855,309.246L174.09,308.065C211.19,315.461 238.118,347.42 238.118,384.058C238.118,416.616 216.829,445.942 185.144,457.032C184.386,457.297 183.553,457.579 182.655,457.884C173.334,461.043 160.734,466.331 147.18,479.742" style="fill:rgb(139,160,175);fill-rule:nonzero;"/>
        </g>
        <g transform="matrix(0.286544,0,0,0.286544,4.0544,-61.6074)">
            <path d="M137.772,344.785C142.857,342.287 146.872,340.86 153.384,333.098L169.264,333.098L169.264,383.593L177.561,383.593L177.561,395.458L141.875,395.458L141.875,383.593L150.797,383.593L150.797,350.495L141.875,354.687L137.772,344.785Z" style="fill:rgb(139,160,175);fill-rule:nonzero;"/>
        </g>
        <g transform="matrix(0.286544,0,0,0.286544,4.0544,-61.6074)">
            <rect x="126.79" y="417.789" width="66.052" height="8.499" style="fill:rgb(139,160,175);fill-rule:nonzero;"/>
        </g>
        <g transform="matrix(0.286544,0,0,0.286544,4.0544,-61.6074)">
            <rect x="133.846" y="395.453" width="51.94" height="22.318" style="fill:rgb(24,65,95);fill-rule:nonzero;"/>
        </g>
        <g transform="matrix(0.286544,0,0,0.286544,4.0544,-61.6074)">
            <path d="M173.459,413.585L146.173,413.585C146.173,411.726 144.666,410.22 142.808,410.22L142.808,403.041C144.666,403.041 146.173,401.534 146.173,399.676L173.459,399.676C173.459,401.534 174.966,403.041 176.824,403.041L176.824,410.22C174.966,410.22 173.459,411.726 173.459,413.585" style="fill:rgb(139,160,175);fill-rule:nonzero;"/>
        </g>
    </g>
</svg>
