<?xml version="1.0" encoding="UTF-8" standalone="no"?><!DOCTYPE svg PUBLIC "-//W3C//DTD SVG 1.1//EN" "http://www.w3.org/Graphics/SVG/1.1/DTD/svg11.dtd"><svg width="100%" height="100%" viewBox="0 0 241 357" version="1.1" xmlns="http://www.w3.org/2000/svg" xmlns:xlink="http://www.w3.org/1999/xlink" xml:space="preserve" style="fill-rule:evenodd;clip-rule:evenodd;stroke-linejoin:round;stroke-miterlimit:1.41421;"><path d="M56.172,61.946c-30.425,11.046 -31.365,30.573 -9.546,48.211c21.819,17.638 -43.639,2.351 -46.366,23.517c-2.728,21.166 16.364,49.387 40.911,42.331c24.547,-7.055 -20.455,36.452 -5.455,61.146c14.43,23.752 52.203,24.65 68.186,0c15.982,-24.65 24.727,32.437 62.139,27.977c37.412,-4.46 53.776,-33.857 31.957,-47.967c-21.819,-14.111 30.002,-14.111 39.548,-35.276c9.546,-21.166 -6.819,-55.266 -36.821,-49.387c-30.001,5.88 36.821,-49.386 2.728,-59.969c-34.093,-10.583 -46.875,2.94 -72.277,19.99c-25.402,17.05 -23.183,-49.387 -75.004,-30.573" style="fill:#eaaeb4;fill-rule:nonzero;"/><path d="M212.561,335.768c0,11.23 -42.831,20.333 -95.667,20.333c-52.835,0 -95.666,-9.103 -95.666,-20.333c0,-11.23 42.831,-20.333 95.666,-20.333c52.836,0 95.667,9.103 95.667,20.333" style="fill:#e2e3e4;fill-rule:nonzero;"/><path d="M84.124,272.976c-1.096,2.693 -5.285,14.424 1.016,22.742c5.337,7.043 3.3,17.919 -1.946,22.226c-3.746,3.073 -8.285,2.32 -12.144,-2.024c-3.899,-4.383 -7.505,-6.241 -10.181,-5.23c-2.85,1.085 -4.621,5.567 -4.621,11.699c0,3.936 1.797,7.415 5.198,10.06c6.763,5.262 18.703,6.571 31.155,3.41c4.866,-1.233 8.285,-4.374 10.161,-9.33c4.388,-11.592 -0.818,-30.659 -4.19,-35.603c-0.462,-0.676 -0.287,-1.599 0.39,-2.061c0.679,-0.457 1.599,-0.288 2.06,0.39c3.476,5.096 9.271,24.251 4.807,37.479c0.255,0.154 0.48,0.362 0.608,0.655c0.038,0.084 3.766,8.478 10.77,10.987c3.447,1.238 7.183,0.844 11.11,-1.157c7.95,-4.054 9.015,-10.321 7.51,-14.455c-1.326,-3.641 -5.188,-6.996 -10.541,-5.762c-0.795,0.188 -1.594,-0.313 -1.778,-1.112c-0.184,-0.798 0.315,-1.595 1.112,-1.779c0.526,-0.121 1.048,-0.197 1.567,-0.252c-2.052,-4.506 -6.489,-16.561 -0.644,-26.389c0.417,-0.706 1.329,-0.939 2.031,-0.517c0.704,0.418 0.935,1.327 0.517,2.031c-5.877,9.883 0.45,23.042 1.442,24.978c4.086,0.706 7.527,3.521 9.08,7.789c0.912,2.506 1.038,5.423 0.122,8.297c2.226,0.527 14.955,3.352 24.756,1.446c5.413,-1.053 10.236,-4.793 12.59,-9.761c2.231,-4.711 2.03,-9.964 -0.569,-14.79c-0.851,-1.583 -1.78,-2.489 -2.838,-2.77c-2.089,-0.562 -4.935,1.21 -7.942,3.08c-4.79,2.978 -10.755,6.686 -15.999,1.261c-8.374,-8.664 -2.368,-29.03 -0.503,-34.614c-8.222,1.246 -17.031,1.705 -25.512,1.705c-16.225,0 -31.233,-1.662 -38.594,-2.629" style="fill:#94ce99;fill-rule:nonzero;"/><path d="M147.238,225.026c0.598,-0.559 1.538,-0.523 2.095,0.08c7.174,7.74 8.874,21.917 9.035,32.484c0.093,-0.012 0.18,-0.045 0.278,-0.038c5.03,0.246 15.513,-1.419 18.829,-1.976c4,-24.929 -11.907,-41.453 -15.004,-44.398c-9.225,6.295 -21.217,9.587 -35.352,9.587l-0.004,0c-7.534,0 -15.453,-0.912 -23.538,-2.708c-9.488,-2.109 -18.053,-5.857 -25.32,-10.906c-0.055,0.069 -0.092,0.149 -0.162,0.209c-0.239,0.207 -23.559,20.734 -19.247,48.216c3.284,0.55 13.596,2.192 18.667,1.98c1.062,-16.948 8.145,-31.918 8.524,-32.705c0.354,-0.737 1.235,-1.053 1.977,-0.695c0.739,0.355 1.05,1.239 0.695,1.978c-0.111,0.231 -10.868,22.964 -7.81,43.4c6.911,1.028 46.279,6.403 74.049,0.1c0.496,-5.52 2.25,-31.679 -7.792,-42.513c-0.556,-0.601 -0.521,-1.539 0.08,-2.095" style="fill:#bb6084;fill-rule:nonzero;"/><path d="M77.391,260.524c-0.266,0.008 -0.525,0.018 -0.812,0.018c-4.125,0.001 -10.275,-0.806 -14.52,-1.448c0.141,3.026 -0.187,9.203 -4.642,12.884c-2.54,2.098 -5.987,2.463 -8.759,2.755c-1.689,0.18 -3.793,0.401 -4.178,1.037c-0.079,0.127 -0.281,0.662 0.328,2.208c1.427,3.621 3.626,6.081 6.36,7.112c2.893,1.089 6.327,0.63 10.219,-1.365c8.074,-4.141 12.53,-10.886 16.143,-17.556c0.005,-0.009 0.013,-0.014 0.019,-0.022c-0.143,-1.879 -0.193,-3.758 -0.158,-5.623" style="fill:#94ce99;fill-rule:nonzero;"/><path d="M94.006,179.456c0,-4.166 1.666,-7.978 4.691,-10.733c3.339,-3.043 8.162,-4.651 13.945,-4.651c1.832,0 3.561,0.056 5.243,0.137c0.245,-0.247 0.568,-0.42 0.943,-0.446c0.517,-0.016 0.946,0.211 1.233,0.561c6.92,0.502 12.446,1.75 16.482,3.728c6.284,3.078 7.603,7.233 7.603,10.176c0,9.685 -14.288,19.554 -28.311,19.554c-14.178,0 -21.829,-9.441 -21.829,-18.326m-6.032,-21.654c-0.643,0 -1.3,-0.029 -1.974,-0.088c-14.787,-1.315 -19.434,-15.312 -18.92,-26.9c0.666,-15.003 9.717,-30.531 23.515,-29.474c13.031,1.002 19.308,15.625 18.772,29.551c-0.514,13.395 -7.331,26.911 -21.392,26.911l-0.001,0Zm55.015,-56.462c13.8,-1.048 22.85,14.47 23.515,29.474c0.514,11.588 -4.133,25.585 -18.92,26.9c-0.674,0.059 -1.331,0.088 -1.974,0.088c-14.064,0 -20.879,-13.516 -21.393,-26.911c-0.534,-13.926 5.741,-28.549 18.772,-29.551m-15.875,116.46l0.005,0c12.86,0 30.607,-2.896 42.128,-16.69c15.635,-18.72 13.656,-48.885 9.187,-78.692c-3.595,-23.998 -12.973,-54.917 -37.234,-65.944c-5.498,-2.5 -11.559,-3.766 -18.014,-3.766c-0.734,0 -1.468,0.017 -2.204,0.05c-25.388,1.151 -41.125,18.592 -49.855,33.019c-17.47,28.868 -21.749,71.62 -9.739,97.326c7.469,15.984 23.08,27.67 42.832,32.059c7.875,1.75 15.578,2.638 22.894,2.638" style="fill:#94ce99;fill-rule:nonzero;"/><path d="M141.181,178.228c0,-3.804 -3.232,-6.186 -5.942,-7.513c-1.079,-0.529 -2.305,-0.991 -3.628,-1.406c-0.545,2.621 -2.279,9.486 -5.69,10.632c-1.404,0.472 -3.336,0.773 -5.496,0.773c-2.553,0 -5.424,-0.42 -8.126,-1.48c-5.14,-2.014 -5.289,-10.323 -5.289,-11.264c0,-0.103 0.038,-0.192 0.058,-0.288c-2.542,0.63 -4.704,1.711 -6.374,3.233c-2.4,2.186 -3.723,5.219 -3.723,8.541c0,7.447 6.612,15.361 18.864,15.361c13.412,0 25.346,-9.277 25.346,-16.589" style="fill:#598161;fill-rule:nonzero;"/><path d="M187.66,274.733c-2.771,-0.292 -6.219,-0.657 -8.758,-2.754c-4.456,-3.682 -4.783,-9.86 -4.641,-12.886c-4.245,0.642 -10.395,1.449 -14.52,1.449c-0.439,0 -0.854,-0.009 -1.242,-0.028c-0.045,-0.002 -0.081,-0.025 -0.124,-0.031c-0.019,1.911 -0.081,3.643 -0.159,5.131c0.229,0.133 0.438,0.305 0.572,0.555c3.613,6.67 8.07,13.413 16.143,17.556c3.892,1.995 7.33,2.452 10.221,1.365c2.734,-1.032 4.932,-3.491 6.358,-7.112c0.61,-1.547 0.407,-2.081 0.329,-2.208c-0.385,-0.636 -2.489,-0.857 -4.179,-1.037" style="fill:#94ce99;fill-rule:nonzero;"/><path d="M145.14,121.143c3.773,0 6.832,4.31 6.832,9.627c0,5.318 -3.059,9.628 -6.832,9.628c-3.774,0 -6.832,-4.31 -6.832,-9.628c0,-5.317 3.058,-9.627 6.832,-9.627m2.18,33.617c12.69,-1.128 16.699,-13.041 16.222,-23.814c-0.582,-13.121 -7.926,-26.692 -19.21,-26.692c-0.366,0 -0.74,0.014 -1.115,0.043c-11.162,0.859 -16.516,13.971 -16.037,26.48c0.482,12.529 6.95,25.173 20.14,23.983" style="fill:#fffbd7;fill-rule:nonzero;"/><path d="M127.391,23.899c4.034,0 9.813,-1.131 14.452,-6.522c1.653,-1.922 2.004,-3.847 1.07,-5.884c-2.122,-4.623 -10.256,-8.528 -17.763,-8.528c-4.799,0 -12.87,1.597 -13,12.291c-0.014,1.205 0.636,2.509 1.882,3.771c2.924,2.959 8.167,4.872 13.357,4.872l0.002,0Z" style="fill:#fffbd7;fill-rule:nonzero;"/><path d="M133.63,50.878c-4.548,-8.012 -4.013,-20.406 -3.727,-24.15c-0.825,0.088 -1.662,0.137 -2.512,0.137l-0.001,0c-2.133,0 -4.278,-0.301 -6.316,-0.835c-0.278,4.358 -1.319,17.637 -4.016,24.069c1.243,-0.135 2.502,-0.245 3.792,-0.303c4.391,-0.196 8.679,0.18 12.78,1.082" style="fill:#94ce99;fill-rule:nonzero;"/><path d="M109.976,167.968c0.004,1.997 0.626,7.416 3.407,8.507c1.579,0.619 3.263,0.986 4.892,1.159l-0.704,-10.474c-1.58,-0.073 -3.204,-0.123 -4.928,-0.123c-1.009,0 -1.972,0.069 -2.905,0.175c0.137,0.225 0.238,0.474 0.238,0.756" style="fill:#fffbd7;fill-rule:nonzero;"/><path d="M128.742,168.529c-2.413,-0.547 -5.154,-0.938 -8.186,-1.183l0.698,10.39c1.442,-0.058 2.734,-0.275 3.723,-0.607c1.309,-0.44 2.988,-4.766 3.765,-8.6" style="fill:#fffbd7;fill-rule:nonzero;"/><path d="M89.859,140.397c-3.774,0 -6.833,-4.31 -6.833,-9.628c0,-5.316 3.059,-9.627 6.833,-9.627c3.773,0 6.832,4.311 6.832,9.627c0,5.318 -3.059,9.628 -6.832,9.628m0.507,-36.101c-0.373,-0.029 -0.747,-0.043 -1.113,-0.043c-11.284,0 -18.628,13.571 -19.21,26.692c-0.478,10.773 3.532,22.686 16.221,23.814c13.197,1.186 19.66,-11.454 20.141,-23.982c0.479,-12.51 -4.875,-25.622 -16.039,-26.481" style="fill:#fffbd7;fill-rule:nonzero;"/><path d="M146.072,126.577c0,-1.63 -1.321,-2.951 -2.95,-2.951c-1.63,0 -2.951,1.321 -2.951,2.951c0,1.63 1.321,2.95 2.951,2.95c1.629,0 2.95,-1.32 2.95,-2.95" style="fill:#779daa;fill-rule:nonzero;"/><path d="M87.84,123.627c-1.63,0 -2.951,1.321 -2.951,2.951c0,1.629 1.321,2.95 2.951,2.95c1.629,0 2.95,-1.321 2.95,-2.95c0,-1.63 -1.321,-2.951 -2.95,-2.951" style="fill:#779daa;fill-rule:nonzero;"/><path d="M132.317,190.045c0.604,-2.387 1.081,-4.823 1.521,-7.257c0.744,-4.113 1.422,-8.41 0.489,-12.469c-0.848,-0.363 -1.743,-0.705 -2.716,-1.011c-0.545,2.622 -2.279,9.487 -5.689,10.632c-1.405,0.472 -3.337,0.773 -5.497,0.773c-2.553,0 -5.424,-0.42 -8.126,-1.479c-3.694,-1.448 -4.806,-6.137 -5.141,-9.016c-1.903,3.998 -2.005,8.855 -1.692,13.428c0.173,2.527 0.459,5.1 1.435,7.381c0.406,0.947 0.924,1.812 1.486,2.646c2.19,0.718 4.666,1.143 7.448,1.143c6.145,0 11.963,-1.957 16.482,-4.771" style="fill:#42654a;fill-rule:nonzero;"/><path d="M61.389,183.103c7.468,15.984 23.08,27.67 42.831,32.059c7.379,1.64 14.595,2.491 21.495,2.596c-7.674,-7.054 -15.246,-14.312 -21.321,-22.49c-6.803,-3.399 -10.387,-9.734 -10.387,-15.812c0,-1.035 0.103,-2.047 0.304,-3.028c-2.026,-6.078 -3.05,-12.406 -3.57,-18.822c-0.891,0.121 -1.808,0.196 -2.765,0.196l-0.002,0c-0.642,0 -1.3,-0.029 -1.973,-0.088c-14.788,-1.315 -19.434,-15.312 -18.92,-26.9c0.666,-15.003 9.717,-30.531 23.514,-29.474c1.308,0.101 2.528,0.373 3.7,0.733c3.248,-10.166 8.223,-19.815 13.155,-29.33c2.517,-4.855 5.133,-9.838 9.296,-13.384c3.788,-3.228 8.53,-4.983 13.419,-6.133c-2.267,-0.344 -4.596,-0.519 -6.978,-0.519c-0.735,0 -1.469,0.018 -2.204,0.051c-25.388,1.151 -41.126,18.591 -49.855,33.018c-17.471,28.869 -21.749,71.621 -9.739,97.327" style="fill:#85ba8b;fill-rule:nonzero;"/><path d="M76.579,260.542c-2.569,0 -5.924,-0.313 -9.115,-0.704c-0.046,4.173 -0.71,8.312 -2.456,12.078c-2.603,5.612 -7.946,10.234 -14.119,10.654c-1.197,0.081 -2.437,-0.034 -3.613,-0.341c1.121,1.333 2.427,2.309 3.892,2.861c2.893,1.089 6.327,0.63 10.219,-1.365c8.074,-4.141 12.531,-10.886 16.143,-17.556c0.005,-0.009 0.014,-0.014 0.019,-0.022c-0.142,-1.879 -0.192,-3.758 -0.158,-5.623c-0.266,0.008 -0.525,0.018 -0.812,0.018" style="fill:#85ba8b;fill-rule:nonzero;"/><path d="M191.674,277.524c-1.926,0.725 -3.836,1.511 -5.862,1.82c-5.445,0.832 -11.034,-2.072 -14.334,-6.482c-2.747,-3.67 -4.055,-8.22 -4.39,-12.818c-2.629,0.289 -5.249,0.499 -7.347,0.499c-0.439,0 -0.854,-0.009 -1.242,-0.028c-0.045,-0.002 -0.081,-0.026 -0.124,-0.032c-0.019,1.912 -0.081,3.643 -0.159,5.132c0.229,0.132 0.438,0.305 0.572,0.554c3.613,6.671 8.07,13.414 16.143,17.556c3.893,1.996 7.33,2.453 10.221,1.366c2.734,-1.032 4.932,-3.491 6.358,-7.112c0.065,-0.165 0.116,-0.312 0.164,-0.455" style="fill:#85ba8b;fill-rule:nonzero;"/><path d="M170.879,320.392c-0.59,-0.999 -1.335,-1.947 -2.349,-2.51c-4.54,-2.524 -9.212,3.944 -14.402,4.174c-1.91,0.085 -3.75,-0.71 -5.404,-1.668c-9.686,-5.61 -15.037,-17.819 -12.597,-28.742c1.505,-6.741 5.908,-12.656 11.676,-16.427c0.157,-0.5 0.302,-0.945 0.427,-1.32c-8.222,1.246 -17.031,1.706 -25.512,1.706c-12.582,0 -24.415,-0.999 -32.535,-1.899c-0.069,0.709 -0.179,1.413 -0.328,2.091c-0.676,3.062 -1.859,6.124 -1.463,9.236c0.369,2.896 2.057,5.425 3.572,7.921c2.826,4.652 5.227,9.676 6.013,15.062c0.787,5.386 -0.198,11.201 -3.569,15.475c-1.666,2.112 -3.851,3.782 -6.23,5.039c-6.571,3.477 -14.752,3.736 -21.531,0.684c-4.187,-1.884 -7.775,-5.011 -10.326,-8.825c-0.043,0.647 -0.073,1.309 -0.073,2c0,3.935 1.797,7.414 5.198,10.06c6.763,5.262 18.703,6.571 31.155,3.41c4.866,-1.234 8.285,-4.374 10.162,-9.331c4.387,-11.592 -0.819,-30.658 -4.191,-35.603c-0.462,-0.676 -0.286,-1.598 0.39,-2.06c0.679,-0.458 1.6,-0.288 2.06,0.389c3.476,5.097 9.271,24.252 4.807,37.48c0.255,0.153 0.48,0.361 0.608,0.654c0.038,0.084 3.766,8.478 10.77,10.987c3.448,1.238 7.183,0.844 11.11,-1.157c3.751,-1.912 5.955,-4.318 7.094,-6.76c-1.151,0.633 -2.561,0.895 -3.894,0.909c-7.132,0.079 -13.51,-5.542 -15.781,-12.303c-2.272,-6.761 -1.015,-14.3 1.865,-20.825c1.307,-2.962 3.425,-6.058 6.278,-7.176c0.425,-1.218 0.967,-2.422 1.664,-3.594c0.417,-0.705 1.329,-0.938 2.031,-0.517c0.704,0.419 0.936,1.328 0.517,2.032c-5.877,9.882 0.45,23.041 1.443,24.977c4.086,0.707 7.526,3.521 9.079,7.789c0.912,2.506 1.038,5.423 0.123,8.298c2.225,0.527 14.954,3.351 24.755,1.445c3.488,-0.678 6.719,-2.483 9.214,-5.002c-0.134,-2.14 -0.734,-4.251 -1.826,-6.099" style="fill:#85ba8b;fill-rule:nonzero;"/><path d="M127.119,220.765l-0.004,0c-7.534,0 -15.453,-0.912 -23.538,-2.708c-9.488,-2.108 -18.053,-5.856 -25.32,-10.906c-0.055,0.069 -0.092,0.149 -0.162,0.209c-0.239,0.207 -23.559,20.734 -19.247,48.216c3.284,0.551 13.596,2.193 18.667,1.98c1.062,-16.948 8.145,-31.918 8.523,-32.705c0.355,-0.737 1.235,-1.053 1.978,-0.695c0.739,0.355 1.05,1.239 0.695,1.978c-0.111,0.232 -10.868,22.964 -7.81,43.4c2.928,0.435 11.691,1.65 22.92,2.427c-1.292,-9.819 -1.835,-19.934 2.324,-28.782c5.408,-11.506 17.24,-17.917 29.258,-22.852c-2.678,0.267 -5.425,0.438 -8.284,0.438" style="fill:#a65576;fill-rule:nonzero;"/><path d="M119.053,227.476c-4.48,0 -8.265,8.407 -8.265,18.358c0,9.952 3.785,18.36 8.265,18.36c4.48,0 8.265,-8.408 8.265,-18.36c0,-9.951 -3.785,-18.358 -8.265,-18.358m0,38.201c-5.466,0 -9.747,-8.717 -9.747,-19.843c0,-11.126 4.281,-19.841 9.747,-19.841c5.466,0 9.747,8.715 9.747,19.841c0,11.126 -4.281,19.843 -9.747,19.843" style="fill:#fff;fill-rule:nonzero;"/><path d="M128.561,231.642c-4.254,0 -10.28,3.277 -15.354,8.349c-7.037,7.037 -10.305,15.658 -7.137,18.826c0.805,0.805 1.973,1.212 3.473,1.212c4.255,0 10.281,-3.277 15.353,-8.349c7.037,-7.037 10.305,-15.658 7.137,-18.826c-0.805,-0.805 -1.972,-1.212 -3.472,-1.212m-19.018,29.869c-1.907,0 -3.428,-0.553 -4.521,-1.646c-3.866,-3.865 -0.73,-13.056 7.137,-20.923c5.42,-5.418 11.703,-8.783 16.402,-8.783c1.907,0 3.427,0.553 4.52,1.647c3.866,3.864 0.73,13.056 -7.136,20.922c-5.419,5.418 -11.702,8.783 -16.402,8.783" style="fill:#fff;fill-rule:nonzero;"/><path d="M119.053,237.569c-9.952,0 -18.358,3.785 -18.358,8.265c0,4.481 8.406,8.266 18.358,8.266c9.952,0 18.358,-3.785 18.358,-8.266c0,-4.48 -8.406,-8.265 -18.358,-8.265m0,18.014c-11.126,0 -19.841,-4.282 -19.841,-9.749c0,-5.466 8.715,-9.748 19.841,-9.748c11.126,0 19.841,4.282 19.841,9.748c0,5.467 -8.715,9.749 -19.841,9.749" style="fill:#fff;fill-rule:nonzero;"/><path d="M109.543,231.642c-1.5,0 -2.667,0.407 -3.472,1.212c-3.167,3.168 0.101,11.789 7.137,18.826c5.073,5.072 11.099,8.349 15.353,8.349c1.501,0 2.668,-0.407 3.473,-1.212c1.465,-1.466 1.601,-4.266 0.373,-7.685c-1.31,-3.653 -3.979,-7.61 -7.51,-11.141c-5.072,-5.072 -11.099,-8.349 -15.354,-8.349m19.018,29.869c-4.698,0 -10.982,-3.365 -16.402,-8.783c-7.866,-7.868 -11.001,-17.058 -7.136,-20.922c1.077,-1.078 2.641,-1.647 4.52,-1.647c4.7,0 10.984,3.365 16.402,8.783c3.684,3.682 6.474,7.834 7.858,11.69c1.451,4.038 1.194,7.317 -0.721,9.233c-1.077,1.077 -2.64,1.646 -4.521,1.646" style="fill:#fff;fill-rule:nonzero;"/><path d="M164.887,246.668c-2.817,-6.017 -7.291,-11.065 -11.768,-15.985c4.016,7.908 5.122,18.535 5.249,26.907c0.093,-0.012 0.18,-0.045 0.278,-0.038c2.249,0.11 5.586,-0.163 8.886,-0.547c-0.17,-3.548 -1.138,-7.117 -2.645,-10.337" style="fill:#a65576;fill-rule:nonzero;"/><path d="M155.921,146.906c-2.599,1.49 -5.515,2.618 -8.509,2.507c-7.112,-0.265 -12.052,-7.102 -15.034,-13.565c-2.212,-4.794 -4.012,-9.88 -4.247,-15.154c-0.002,-0.043 0.001,-0.087 0,-0.129c-0.755,3.272 -1.084,6.761 -0.952,10.211c0.483,12.529 6.951,25.174 20.141,23.984c8.292,-0.737 12.86,-6.088 14.909,-12.708c-1.89,1.875 -3.997,3.529 -6.308,4.854" style="fill:#ffe0bb;fill-rule:nonzero;"/><path d="M105.943,135.452c-1.934,2.978 -4.14,5.736 -6.916,7.935c-5.163,4.091 -12.838,5.777 -18.375,2.208c-4.137,-2.667 -6.234,-7.639 -7.008,-12.5c-1.41,-8.864 1.089,-18.203 6.442,-25.381l-3.359,3.455c-3.97,5.159 -6.362,12.531 -6.684,19.777c-0.478,10.773 3.532,22.686 16.221,23.814c11.548,1.038 17.94,-8.512 19.679,-19.308" style="fill:#ffe0bb;fill-rule:nonzero;"/><path d="M80.157,107.623c-0.023,0.031 -0.049,0.06 -0.072,0.091l0.133,-0.136c-0.02,0.016 -0.041,0.029 -0.061,0.045" style="fill:#ffe0bb;fill-rule:nonzero;"/><path d="M142.913,11.493c-0.102,-0.223 -0.23,-0.442 -0.359,-0.661c-3.996,3.761 -9.032,6.418 -14.413,7.5c-1.347,0.271 -2.723,0.448 -4.093,0.359c-3.087,-0.201 -6.053,-1.824 -7.886,-4.315c-1.455,-1.977 -2.015,-4.589 -1.672,-7.002c-1.375,1.818 -2.296,4.344 -2.34,7.882c-0.014,1.205 0.636,2.509 1.883,3.771c2.923,2.959 8.166,4.872 13.357,4.872l0.001,0c4.034,0 9.813,-1.131 14.452,-6.522c1.654,-1.922 2.004,-3.847 1.07,-5.884" style="fill:#ffe0bb;fill-rule:nonzero;"/><path d="M125.135,49.808c-0.181,-0.745 -0.366,-1.489 -0.531,-2.235c-1.518,-6.88 -0.884,-14.208 1.734,-20.745c-1.783,-0.081 -3.561,-0.353 -5.264,-0.799c-0.277,4.358 -1.319,17.638 -4.016,24.07c1.243,-0.136 2.502,-0.245 3.792,-0.304c1.442,-0.064 2.868,-0.044 4.285,0.013" style="fill:#85ba8b;fill-rule:nonzero;"/><path d="M178.435,122.417c-3.595,-23.998 -12.973,-54.917 -37.235,-65.944c-1.568,-0.713 -3.186,-1.314 -4.842,-1.826c8.236,5.579 24.834,19.105 33.181,41.97c11.368,31.136 11.368,66.226 0.495,94.891c-4.17,10.993 -13.066,18.415 -22.476,23.455c7.874,-2.392 15.641,-6.611 21.69,-13.854c15.635,-18.72 13.655,-48.885 9.187,-78.692" style="fill:#fff;fill-rule:nonzero;"/><path d="M130.801,50.353c0.951,0.15 1.896,0.32 2.829,0.525c-4.548,-8.012 -4.013,-20.407 -3.727,-24.15c0,0 -4.885,11.372 0.898,23.625" style="fill:#fff;fill-rule:nonzero;"/><path d="M146.805,312.099c13.344,8.896 18.781,-3.459 22.734,-3.954c1.927,-0.241 5.493,1.284 7.904,4.564c-0.284,-1.949 -0.921,-3.89 -1.932,-5.767c-0.851,-1.582 -1.779,-2.489 -2.837,-2.77c-2.09,-0.561 -4.935,1.211 -7.942,3.08c-4.79,2.979 -10.756,6.687 -16,1.261c-8.374,-8.663 -2.368,-29.03 -0.503,-34.614c0,0 -14.768,29.304 -1.424,38.2" style="fill:#fff;fill-rule:nonzero;"/><path d="M171.219,259.53c0.739,5.757 4.236,20.093 20.569,16.19c-0.469,-0.595 -2.487,-0.812 -4.129,-0.987c-2.771,-0.292 -6.218,-0.657 -8.758,-2.753c-4.455,-3.683 -4.783,-9.86 -4.641,-12.887c-0.932,0.142 -1.966,0.29 -3.041,0.437" style="fill:#fff;fill-rule:nonzero;"/><path d="M162.471,211.178c-0.309,0.211 -0.647,0.391 -0.963,0.596c4.409,6.255 15.005,23.707 12.792,44.31c1.319,-0.202 2.433,-0.383 3.175,-0.508c4,-24.928 -11.908,-41.453 -15.004,-44.398" style="fill:#fff;fill-rule:nonzero;"/><path d="M123.186,52.707c-0.734,0 -1.468,0.017 -2.204,0.051c-25.388,1.151 -41.125,18.591 -49.855,33.018c-17.47,28.869 -21.749,71.62 -9.739,97.327c7.469,15.984 23.081,27.67 42.832,32.058c7.875,1.751 15.578,2.638 22.894,2.638l0.005,0c12.86,0 30.607,-2.895 42.128,-16.69c15.635,-18.72 13.656,-48.885 9.187,-78.692c-3.595,-23.998 -12.973,-54.917 -37.234,-65.944c-5.498,-2.499 -11.559,-3.766 -18.014,-3.766m3.933,168.058l-0.005,0c-7.533,0 -15.452,-0.912 -23.537,-2.708c-20.658,-4.591 -37.015,-16.874 -44.876,-33.7c-12.592,-26.953 -8.341,-69.995 9.888,-100.117c9.106,-15.046 25.563,-33.234 52.26,-34.445c7.658,-0.342 15.024,0.999 21.579,3.979c25.471,11.578 35.235,43.48 38.94,68.203c4.57,30.494 6.54,61.414 -9.844,81.032c-9.7,11.615 -25.058,17.756 -44.405,17.756" style="fill:#211f1f;fill-rule:nonzero;"/><path d="M89.253,104.253c-11.284,0 -18.628,13.571 -19.21,26.692c-0.477,10.773 3.532,22.687 16.221,23.815c13.197,1.185 19.66,-11.455 20.141,-23.982c0.479,-12.511 -4.875,-25.623 -16.039,-26.482c-0.373,-0.029 -0.747,-0.043 -1.113,-0.043m-1.277,53.549l-0.002,0c-0.642,0 -1.3,-0.029 -1.973,-0.089c-14.788,-1.314 -19.434,-15.312 -18.92,-26.899c0.666,-15.004 9.717,-30.531 23.514,-29.474c13.032,1.002 19.308,15.624 18.773,29.55c-0.514,13.395 -7.331,26.912 -21.392,26.912" style="fill:#211f1f;fill-rule:nonzero;"/><path d="M144.332,104.253c-0.366,0 -0.74,0.014 -1.115,0.043c-11.162,0.859 -16.516,13.971 -16.037,26.48c0.482,12.529 6.95,25.174 20.14,23.984c12.69,-1.128 16.699,-13.042 16.222,-23.815c-0.582,-13.121 -7.926,-26.692 -19.21,-26.692m1.278,53.549c-14.063,0 -20.879,-13.517 -21.393,-26.912c-0.534,-13.926 5.741,-28.548 18.773,-29.55c13.8,-1.049 22.849,14.469 23.514,29.474c0.514,11.587 -4.132,25.585 -18.92,26.899c-0.673,0.06 -1.331,0.089 -1.974,0.089" style="fill:#211f1f;fill-rule:nonzero;"/><path d="M151.972,130.77c0,5.317 -3.059,9.628 -6.833,9.628c-3.773,0 -6.832,-4.311 -6.832,-9.628c0,-5.317 3.059,-9.628 6.832,-9.628c3.774,0 6.833,4.311 6.833,9.628" style="fill:#211f1f;fill-rule:nonzero;"/><path d="M146.072,126.577c0,1.629 -1.321,2.95 -2.95,2.95c-1.63,0 -2.951,-1.321 -2.951,-2.95c0,-1.63 1.321,-2.95 2.951,-2.95c1.629,0 2.95,1.32 2.95,2.95" style="fill:#fff;fill-rule:nonzero;"/><path d="M96.692,130.77c0,5.317 -3.059,9.628 -6.832,9.628c-3.774,0 -6.833,-4.311 -6.833,-9.628c0,-5.317 3.059,-9.628 6.833,-9.628c3.773,0 6.832,4.311 6.832,9.628" style="fill:#211f1f;fill-rule:nonzero;"/><path d="M90.791,126.577c0,1.629 -1.321,2.95 -2.95,2.95c-1.63,0 -2.951,-1.321 -2.951,-2.95c0,-1.63 1.321,-2.95 2.951,-2.95c1.629,0 2.95,1.32 2.95,2.95" style="fill:#fff;fill-rule:nonzero;"/><path d="M112.643,167.037c-5.033,0 -9.164,1.341 -11.948,3.878c-2.401,2.186 -3.723,5.219 -3.723,8.541c0,7.447 6.611,15.361 18.864,15.361c13.412,0 25.346,-9.277 25.346,-16.589c0,-3.804 -3.232,-6.185 -5.943,-7.513c-4.979,-2.441 -12.581,-3.678 -22.596,-3.678m3.193,30.745c-14.178,0 -21.829,-9.442 -21.829,-18.326c0,-4.166 1.666,-7.978 4.691,-10.734c3.339,-3.042 8.162,-4.65 13.945,-4.65c10.471,0 18.513,1.339 23.901,3.98c6.284,3.078 7.603,7.232 7.603,10.176c0,9.685 -14.288,19.554 -28.311,19.554" style="fill:#211f1f;fill-rule:nonzero;"/><path d="M120.425,180.714c-2.553,0 -5.424,-0.42 -8.126,-1.48c-5.14,-2.014 -5.289,-10.323 -5.289,-11.265c0,-0.818 0.663,-1.481 1.481,-1.481l0.002,0c0.818,0 1.481,0.662 1.482,1.48c0.005,1.997 0.626,7.416 3.407,8.506c4.107,1.611 8.94,1.548 11.595,0.655c1.328,-0.446 3.038,-4.891 3.8,-8.764c0.158,-0.803 0.939,-1.325 1.74,-1.169c0.804,0.158 1.328,0.937 1.17,1.741c-0.447,2.277 -2.183,9.801 -5.766,11.004c-1.404,0.472 -3.336,0.773 -5.496,0.773" style="fill:#211f1f;fill-rule:nonzero;"/><path d="M119.797,179.677c-0.773,0 -1.425,-0.599 -1.478,-1.383l-0.87,-12.951c-0.056,-0.819 0.563,-1.525 1.379,-1.58c0.853,-0.028 1.524,0.563 1.58,1.38l0.87,12.951c0.055,0.818 -0.563,1.525 -1.38,1.58c-0.034,0.002 -0.068,0.003 -0.101,0.003" style="fill:#211f1f;fill-rule:nonzero;"/><path d="M125.15,2.965c-4.798,0 -12.869,1.597 -12.999,12.292c-0.015,1.204 0.635,2.509 1.882,3.77c2.923,2.959 8.166,4.872 13.357,4.872l0.001,0c4.034,0 9.813,-1.131 14.452,-6.521c1.654,-1.923 2.004,-3.847 1.07,-5.885c-2.121,-4.623 -10.255,-8.528 -17.763,-8.528m2.241,23.9l-0.001,0c-5.944,0 -12.015,-2.259 -15.467,-5.753c-1.815,-1.839 -2.762,-3.876 -2.738,-5.892c0.116,-9.53 6.084,-15.22 15.965,-15.22c8.686,0 17.863,4.601 20.458,10.257c1.407,3.066 0.869,6.282 -1.518,9.055c-4.19,4.871 -10.121,7.553 -16.699,7.553" style="fill:#211f1f;fill-rule:nonzero;"/><path d="M115.324,51.817c-0.223,0 -0.449,-0.051 -0.662,-0.156c-0.732,-0.367 -1.029,-1.257 -0.663,-1.99c3.239,-6.479 4.185,-25.001 4.193,-25.186c0.039,-0.819 0.734,-1.477 1.554,-1.409c0.818,0.04 1.449,0.735 1.409,1.553c-0.039,0.787 -0.989,19.337 -4.503,26.369c-0.26,0.519 -0.784,0.819 -1.328,0.819" style="fill:#211f1f;fill-rule:nonzero;"/><path d="M135.824,53.059c-0.463,0 -0.918,-0.216 -1.208,-0.621c-6.466,-9.053 -4.694,-26.08 -4.616,-26.8c0.089,-0.812 0.8,-1.394 1.635,-1.313c0.814,0.088 1.402,0.821 1.313,1.635c-0.017,0.165 -1.726,16.625 4.081,24.755c0.476,0.666 0.321,1.593 -0.345,2.067c-0.261,0.187 -0.562,0.277 -0.86,0.277" style="fill:#211f1f;fill-rule:nonzero;"/><path d="M76.579,260.542c-6.692,0.002 -18.736,-2.125 -19.278,-2.223c-0.611,-0.108 -1.089,-0.584 -1.2,-1.195c-5.369,-29.683 19.802,-51.79 20.057,-52.009c0.625,-0.535 1.556,-0.464 2.09,0.154c0.535,0.62 0.467,1.555 -0.153,2.091c-0.239,0.207 -23.559,20.734 -19.247,48.216c3.317,0.556 13.812,2.228 18.826,1.976c0.777,-0.067 1.513,0.588 1.555,1.407c0.04,0.819 -0.59,1.514 -1.408,1.556c-0.386,0.018 -0.803,0.027 -1.242,0.027" style="fill:#211f1f;fill-rule:nonzero;"/><path d="M122.717,275.605c-22.706,0 -43.041,-3.256 -43.347,-3.306c-0.622,-0.102 -1.113,-0.588 -1.222,-1.21c-3.763,-21.648 7.412,-45.245 7.89,-46.238c0.355,-0.737 1.235,-1.053 1.978,-0.695c0.738,0.355 1.05,1.239 0.695,1.978c-0.111,0.231 -10.868,22.964 -7.81,43.4c6.911,1.028 46.278,6.403 74.048,0.1c0.497,-5.52 2.25,-31.679 -7.791,-42.513c-0.556,-0.601 -0.521,-1.539 0.08,-2.095c0.598,-0.559 1.537,-0.523 2.095,0.08c12.126,13.083 8.615,44.567 8.46,45.902c-0.072,0.617 -0.521,1.123 -1.126,1.27c-10.401,2.496 -22.48,3.327 -33.95,3.327" style="fill:#211f1f;fill-rule:nonzero;"/><path d="M79.597,340.51c-8.027,0.001 -15.138,-1.959 -19.971,-5.719c-4.15,-3.229 -6.344,-7.516 -6.344,-12.402c0,-7.617 2.382,-12.892 6.533,-14.47c2.256,-0.858 7.005,-1.218 13.45,6.032c1.949,2.192 4.926,4.261 8.046,1.701c4.222,-3.466 5.727,-12.519 1.466,-18.144c-8.21,-10.838 -1.388,-25.741 -1.092,-26.37c0.346,-0.741 1.228,-1.062 1.969,-0.713c0.741,0.346 1.061,1.227 0.717,1.969c-0.065,0.139 -6.352,13.923 0.769,23.324c5.337,7.043 3.299,17.919 -1.946,22.226c-3.746,3.073 -8.285,2.32 -12.144,-2.024c-3.899,-4.383 -7.505,-6.241 -10.181,-5.23c-2.85,1.085 -4.621,5.567 -4.621,11.699c0,3.936 1.797,7.415 5.198,10.06c6.763,5.262 18.703,6.571 31.155,3.41c4.866,-1.233 8.285,-4.374 10.161,-9.33c4.388,-11.592 -0.818,-30.659 -4.19,-35.603c-0.462,-0.676 -0.287,-1.599 0.39,-2.061c0.679,-0.457 1.599,-0.288 2.06,0.39c3.55,5.205 9.527,25.081 4.513,38.324c-2.238,5.914 -6.345,9.667 -12.204,11.156c-4.702,1.192 -9.356,1.775 -13.734,1.775" style="fill:#211f1f;fill-rule:nonzero;"/><path d="M121.271,342.053c-1.732,0 -3.429,-0.297 -5.082,-0.892c-8.217,-2.955 -12.302,-12.2 -12.473,-12.592c-0.324,-0.751 0.021,-1.622 0.771,-1.95c0.753,-0.324 1.623,0.021 1.95,0.769c0.038,0.084 3.766,8.478 10.77,10.987c3.447,1.238 7.183,0.844 11.11,-1.157c7.95,-4.054 9.014,-10.321 7.51,-14.454c-1.326,-3.642 -5.188,-6.997 -10.541,-5.763c-0.795,0.188 -1.594,-0.313 -1.778,-1.112c-0.184,-0.798 0.314,-1.594 1.112,-1.778c6.09,-1.41 11.844,1.734 13.993,7.639c2.07,5.688 0.106,13.493 -8.95,18.109c-2.865,1.461 -5.673,2.194 -8.392,2.194" style="fill:#211f1f;fill-rule:nonzero;"/><path d="M128.37,316.418c-0.523,0 -1.029,-0.277 -1.3,-0.767c-0.359,-0.652 -8.712,-16.1 -1.528,-28.181c0.417,-0.706 1.329,-0.939 2.032,-0.517c0.703,0.418 0.935,1.327 0.517,2.031c-6.326,10.638 1.497,25.091 1.576,25.236c0.396,0.717 0.135,1.619 -0.583,2.014c-0.227,0.125 -0.472,0.184 -0.714,0.184" style="fill:#211f1f;fill-rule:nonzero;"/><path d="M155.84,335.116c-9.126,0 -17.741,-2.165 -18.209,-2.285c-0.793,-0.203 -1.273,-1.009 -1.07,-1.803c0.203,-0.793 1.012,-1.275 1.803,-1.07c0.143,0.037 14.406,3.62 25.127,1.535c5.412,-1.052 10.235,-4.792 12.59,-9.76c2.231,-4.712 2.03,-9.965 -0.57,-14.791c-0.851,-1.582 -1.779,-2.489 -2.837,-2.77c-2.09,-0.561 -4.935,1.211 -7.942,3.08c-4.79,2.979 -10.755,6.687 -16,1.261c-9.545,-9.875 -0.407,-34.957 -0.013,-36.02c0.285,-0.767 1.14,-1.164 1.904,-0.874c0.769,0.283 1.16,1.136 0.876,1.904c-0.09,0.243 -8.889,24.39 -0.636,32.928c3.344,3.458 6.878,1.658 12.303,-1.717c3.412,-2.121 6.93,-4.32 10.271,-3.427c1.892,0.504 3.424,1.887 4.687,4.231c3.056,5.676 3.282,11.878 0.635,17.465c-2.748,5.803 -8.382,10.171 -14.702,11.401c-2.644,0.514 -5.454,0.712 -8.217,0.712" style="fill:#211f1f;fill-rule:nonzero;"/><path d="M54.422,288.635c-1.503,0 -2.938,-0.256 -4.3,-0.77c-3.538,-1.335 -6.329,-4.379 -8.073,-8.801c-0.803,-2.041 -0.838,-3.621 -0.105,-4.83c1.148,-1.894 3.701,-2.163 6.404,-2.448c2.499,-0.265 5.331,-0.565 7.182,-2.094c4.629,-3.824 3.451,-11.824 3.438,-11.905c-0.124,-0.808 0.429,-1.567 1.237,-1.693c0.809,-0.127 1.567,0.425 1.693,1.233c0.063,0.395 1.461,9.743 -4.48,14.651c-2.54,2.098 -5.987,2.463 -8.759,2.755c-1.689,0.18 -3.793,0.402 -4.178,1.037c-0.079,0.128 -0.281,0.662 0.328,2.208c1.426,3.622 3.626,6.081 6.359,7.112c2.893,1.089 6.328,0.63 10.22,-1.365c8.074,-4.141 12.53,-10.885 16.143,-17.556c0.389,-0.72 1.29,-0.987 2.01,-0.597c0.719,0.39 0.987,1.289 0.596,2.01c-3.838,7.089 -8.603,14.272 -17.397,18.781c-2.951,1.513 -5.733,2.272 -8.318,2.272" style="fill:#211f1f;fill-rule:nonzero;"/><path d="M159.741,260.542c-0.439,0 -0.854,-0.009 -1.242,-0.027c-0.818,-0.042 -1.448,-0.737 -1.408,-1.556c0.041,-0.819 0.733,-1.466 1.555,-1.407c5.03,0.246 15.513,-1.419 18.829,-1.976c4.403,-27.44 -15.317,-44.701 -15.519,-44.873c-0.622,-0.533 -0.695,-1.47 -0.162,-2.091c0.536,-0.624 1.471,-0.692 2.091,-0.162c0.217,0.187 21.701,18.988 16.334,48.674c-0.111,0.611 -0.589,1.087 -1.2,1.195c-0.542,0.098 -12.586,2.223 -19.278,2.223" style="fill:#211f1f;fill-rule:nonzero;"/><path d="M181.897,288.635c-2.585,0 -5.366,-0.757 -8.318,-2.272c-8.794,-4.51 -13.559,-11.692 -17.397,-18.781c-0.391,-0.721 -0.123,-1.62 0.596,-2.01c0.72,-0.39 1.622,-0.123 2.01,0.597c3.613,6.671 8.069,13.414 16.143,17.556c3.892,1.995 7.329,2.453 10.221,1.365c2.734,-1.032 4.932,-3.49 6.358,-7.112c0.609,-1.546 0.407,-2.08 0.328,-2.208c-0.385,-0.635 -2.488,-0.857 -4.178,-1.037c-2.772,-0.292 -6.219,-0.657 -8.759,-2.753c-5.941,-4.91 -4.542,-14.258 -4.478,-14.653c0.126,-0.808 0.889,-1.357 1.692,-1.233c0.808,0.126 1.361,0.885 1.237,1.693c-0.013,0.081 -1.19,8.081 3.437,11.906c1.851,1.528 4.683,1.828 7.182,2.093c2.703,0.285 5.256,0.554 6.404,2.448c0.733,1.209 0.698,2.789 -0.106,4.83c-1.741,4.422 -4.531,7.466 -8.07,8.801c-1.363,0.514 -2.799,0.77 -4.302,0.77" style="fill:#211f1f;fill-rule:nonzero;"/></svg>