<?xml version="1.0" encoding="UTF-8" standalone="no"?><!DOCTYPE svg PUBLIC "-//W3C//DTD SVG 1.1//EN" "http://www.w3.org/Graphics/SVG/1.1/DTD/svg11.dtd"><svg width="100%" height="100%" viewBox="0 0 263 315" version="1.1" xmlns="http://www.w3.org/2000/svg" xmlns:xlink="http://www.w3.org/1999/xlink" xml:space="preserve" style="fill-rule:evenodd;clip-rule:evenodd;stroke-linejoin:round;stroke-miterlimit:1.41421;"><path d="M0.023,116.313c-2.527,-3.724 200.99,-127.494 238.488,-115.494c37.498,11.999 -209.989,157.492 -238.488,115.494" style="fill:#fcc279;fill-rule:nonzero;"/><path d="M12.023,186.809c-2.527,-3.723 200.99,-127.494 238.488,-115.494c37.498,11.999 -209.989,157.492 -238.488,115.494" style="fill:#fcc279;fill-rule:nonzero;"/><path d="M19.696,260.118c-2.527,-3.723 200.99,-127.494 238.488,-115.494c37.498,11.999 -209.989,157.492 -238.488,115.494" style="fill:#fcc279;fill-rule:nonzero;"/><path d="M221.316,297.706c0,9.021 -39.25,16.333 -87.667,16.333c-48.417,0 -87.666,-7.312 -87.666,-16.333c0,-9.021 39.249,-16.333 87.666,-16.333c48.417,0 87.667,7.312 87.667,16.333" style="fill:#e2e3e4;fill-rule:nonzero;"/><path d="M102.34,150.255l-11.741,-0.496c0.442,3.613 1.33,6.925 2.149,8.111c0.976,0.474 4.398,0.982 9.339,1.468l0.253,-9.083Z" style="fill:#e4e5e5;fill-rule:nonzero;"/><path d="M158.148,139.846c-4.356,-0.566 -9.516,-1.133 -15.063,-1.632l-0.301,10.782l15.091,0.637l0.273,-9.787Z" style="fill:#e4e5e5;fill-rule:nonzero;"/><path d="M139.474,161.263l0.263,-9.428l-16.131,-0.682l-0.234,8.409c-0.016,0.527 -0.319,0.963 -0.743,1.214c5.465,0.279 11.225,0.507 16.875,0.66c-0.005,-0.059 -0.032,-0.112 -0.03,-0.173" style="fill:#e4e5e5;fill-rule:nonzero;"/><path d="M121.025,160.692c-0.377,-0.278 -0.632,-0.709 -0.619,-1.214l0.236,-8.45l-15.338,-0.648l-0.256,9.181c0,0.017 -0.01,0.031 -0.011,0.048c4.571,0.396 10.075,0.768 15.988,1.083" style="fill:#e4e5e5;fill-rule:nonzero;"/><path d="M105.387,147.416l15.338,0.648l0.314,-11.277c-3.505,-0.129 -6.952,-0.203 -10.241,-0.203c-1.887,0 -3.577,0.027 -5.111,0.074l-0.3,10.758Z" style="fill:#e4e5e5;fill-rule:nonzero;"/><path d="M102.423,147.291l0.293,-10.505c-7.691,0.429 -10.062,1.437 -10.761,1.936c-0.667,0.478 -1.197,1.81 -1.454,3.655c-0.186,1.339 -0.225,2.854 -0.157,4.404l12.079,0.51Z" style="fill:#e4e5e5;fill-rule:nonzero;"/><path d="M124.004,136.909l-0.315,11.281l16.131,0.681l0.304,-10.914c-5.229,-0.437 -10.713,-0.803 -16.12,-1.048" style="fill:#e4e5e5;fill-rule:nonzero;"/><path d="M160.839,149.759l12.978,0.548c0.155,0.007 0.295,0.057 0.434,0.107c-0.449,-3.847 -1.792,-7.158 -3.143,-8.124c-0.817,-0.523 -4.538,-1.266 -10.004,-2.043l-0.265,9.512Z" style="fill:#e4e5e5;fill-rule:nonzero;"/><path d="M75.324,236.75c2.498,0.169 5.348,0.354 8.488,0.548c0.021,0.003 0.041,-0.006 0.063,-0.003c0.008,0.001 0.014,0.007 0.022,0.008c3.592,0.222 7.556,0.453 11.796,0.682l4.095,-18.432c-6.004,-0.463 -11.383,-0.947 -15.771,-1.373l-8.693,18.57Z" style="fill:#059192;fill-rule:nonzero;"/><path d="M126.649,263.697c-1.803,-1.001 -3.479,-1.917 -5.04,-2.77c-12.39,-6.768 -18.046,-9.857 -18.91,-19.354c-0.007,-0.077 0.019,-0.145 0.024,-0.22c-6.444,-0.319 -12.445,-0.661 -17.705,-0.986c-0.142,3.715 0.527,13.851 11.314,18.908c2.346,1.1 5.159,2.24 8.138,3.447c11.456,4.643 26.079,10.577 30.294,20.867c1.029,-7.551 -0.092,-15.435 -8.115,-19.892" style="fill:#f37b32;fill-rule:nonzero;"/><path d="M182.61,218.714l4.269,19.401c3.827,-0.455 7.2,-1.02 9.973,-1.718l-6.216,-19.687c-2.355,0.758 -5.035,1.425 -8.026,2.004" style="fill:#059192;fill-rule:nonzero;"/><path d="M165.473,242.499c0.882,19.046 -14.411,37.532 -23.832,47.034c13.683,-7.181 38.756,-23.637 36.88,-47.085c-0.017,-0.202 0.01,-0.398 0.07,-0.58c-4.101,0.292 -8.506,0.498 -13.118,0.631" style="fill:#f37b32;fill-rule:nonzero;"/><path d="M230.106,166.111l-15.73,0.629c-1.179,0.534 -7.327,3.574 -9.522,9.843c-1.552,4.429 -0.836,9.562 2.128,15.27l4.703,-1.71c-0.404,-2.447 -0.829,-7.708 2.069,-11.283c2.02,-2.489 5.178,-3.647 9.393,-3.449c4.556,0.218 7.732,1.699 9.436,4.402c1.901,3.017 1.377,6.72 0.817,8.848l7.258,1.361c0.686,-3.561 2.053,-13.306 -2.049,-19.212c-1.899,-2.736 -4.683,-4.271 -8.503,-4.699" style="fill:#5fc7d6;fill-rule:nonzero;"/><path d="M174.319,104.545c-7.148,8.934 -22.11,19.366 -40.75,19.366l-0.005,0c-9.29,-0.001 -18.238,-2.602 -26.595,-7.729c-14.43,-8.856 -23.021,-28.294 -20.426,-46.221c2.243,-15.504 12.215,-26.734 27.358,-30.812c4.032,-1.086 8.617,-1.636 13.627,-1.636c13.457,0 27.476,3.953 36.107,7.653c5.939,2.544 11.479,11.509 14.459,23.395c2.886,11.508 3.408,27.004 -3.775,35.984m3.018,49.894c-0.245,4.331 -1.684,7.441 -4.052,8.756c-0.698,0.388 -2.554,1.417 -19.383,1.417l-0.003,0c-14.358,0 -60.707,-1.432 -63.37,-4.76c-2.212,-2.767 -3.763,-12.125 -2.965,-17.882c0.385,-2.766 1.281,-4.67 2.668,-5.66c0.931,-0.666 3.768,-2.692 20.567,-2.692c21.905,0 58.429,3.685 62.033,6.259c3.207,2.291 4.809,9.203 4.505,14.562m-2.207,-134.949c-16.183,5.874 -31.068,7.843 -43.736,7.843c-25.403,0 -41.9,-7.9 -42.145,-8.02c-0.256,-0.126 -0.436,-0.328 -0.577,-0.552c-4.205,5.027 -8.064,11.331 -11.552,18.919c-23.726,51.626 -22.36,145.509 -4.162,176.353c5.377,0.624 39.931,4.49 71.707,4.491c20.83,0 36.193,-1.626 45.688,-4.836c2.714,-10.897 32.16,-134.175 -8.458,-186.771c-2.094,-2.711 -4.358,-5.175 -6.765,-7.427" style="fill:#5fc7d6;fill-rule:nonzero;"/><path d="M220.696,125.481c-9.546,1.002 -14.298,11.23 -14.349,11.342c-0.198,0.437 -0.59,0.707 -1.026,0.807c-0.055,0.764 -0.114,1.532 -0.173,2.302c0.106,0.012 0.211,0.004 0.317,0.04c3.111,1.036 5.264,4.421 6.763,8.388c2.508,-9.543 6.556,-18.776 8.468,-22.879" style="fill:#059192;fill-rule:nonzero;"/><path d="M164.606,98.994c-5.466,6.831 -16.905,14.808 -31.155,14.808l-0.003,0c-7.106,0 -13.949,-1.988 -20.339,-5.909c-11.049,-6.781 -17.628,-21.66 -15.643,-35.377c1.721,-11.896 9.372,-20.513 20.99,-23.64c3.086,-0.832 6.591,-1.253 10.42,-1.253c10.248,0 20.923,3.01 27.496,5.828c5.5,2.356 9.372,10.828 11.163,17.97c2.207,8.802 2.595,20.668 -2.929,27.573m-2.139,-51.103c-8.361,-3.582 -21.931,-7.412 -34.939,-7.412c-4.751,0 -9.076,0.517 -12.857,1.535c-13.945,3.754 -23.129,14.095 -25.195,28.372c-2.431,16.807 5.577,35.005 19.045,43.268c7.882,4.838 16.309,7.292 25.043,7.292l0.004,0c17.59,0 31.697,-9.833 38.434,-18.254c5.362,-6.701 6.623,-19.815 3.216,-33.409c-2.718,-10.84 -7.723,-19.238 -12.751,-21.392" style="fill:#f37b32;fill-rule:nonzero;"/><path d="M98.696,238.145c5.605,0.291 11.62,0.57 17.842,0.811l1.733,-18.204c-5.408,-0.279 -10.625,-0.616 -15.494,-0.973l-4.081,18.366Z" style="fill:#059192;fill-rule:nonzero;"/><path d="M173.757,153.271c-0.022,0 -0.042,0 -0.064,-0.001l-12.936,-0.547l-0.247,8.857c9.375,-0.206 11.073,-0.832 11.336,-0.977c1.424,-0.792 2.347,-3.1 2.531,-6.331c0.022,-0.39 0.029,-0.78 0.03,-1.169c-0.199,0.099 -0.414,0.168 -0.65,0.168" style="fill:#e4e5e5;fill-rule:nonzero;"/><path d="M157.792,152.598l-15.091,-0.637l-0.262,9.387c-0.001,0.057 -0.028,0.105 -0.036,0.161c3.971,0.089 7.852,0.139 11.495,0.139l0.003,0c1.318,0 2.507,-0.009 3.639,-0.021l0.252,-9.029Z" style="fill:#e4e5e5;fill-rule:nonzero;"/><path d="M133.911,94.077c-5.583,0 -10.11,-6.378 -10.11,-14.246c0,-7.867 4.527,-14.245 10.11,-14.245c5.583,0 10.11,6.378 10.11,14.245c0,7.868 -4.527,14.246 -10.11,14.246m21.294,-37.901c-6.303,-2.7 -16.53,-5.587 -26.329,-5.587c-3.568,0 -6.814,0.388 -9.649,1.151c-10.421,2.804 -17.282,10.532 -18.826,21.2c-1.823,12.6 4.174,26.237 14.261,32.425c5.914,3.63 12.236,5.472 18.786,5.472l0.003,0c13.2,0 23.784,-7.377 28.839,-13.696c3.994,-4.991 4.924,-14.804 2.368,-24.999c-2.001,-7.983 -5.8,-14.401 -9.453,-15.966" style="fill:#fff;fill-rule:nonzero;"/><path d="M119.505,239.066c8.189,0.296 16.663,0.516 24.956,0.597l-2.019,-18.182c-7.087,-0.039 -14.268,-0.259 -21.207,-0.584l-1.73,18.169Z" style="fill:#059192;fill-rule:nonzero;"/><path d="M205.684,132.109c2.464,-3.575 7.213,-8.68 14.472,-9.525c-5.207,-9.52 -11.312,-14.612 -13.934,-16.495c0.168,8.221 -0.007,16.892 -0.538,26.02" style="fill:#059192;fill-rule:nonzero;"/><path d="M222.8,128.021c-1.918,4.238 -5.145,11.873 -7.349,19.763c2.974,-0.566 8.112,-1.153 12.606,0.159c-0.997,-7.861 -2.921,-14.455 -5.257,-19.922" style="fill:#059192;fill-rule:nonzero;"/><path d="M228.401,151.161c-0.021,-0.007 -0.043,-0.004 -0.064,-0.012c-5.903,-2.362 -14.454,0.026 -14.54,0.049c-0.205,0.057 -0.413,0.058 -0.615,0.029c1.406,4.853 2.002,9.953 2.225,12.504l13.34,-0.533c0.129,-4.294 -0.009,-8.294 -0.346,-12.037" style="fill:#059192;fill-rule:nonzero;"/><path d="M145.427,221.486l2.022,18.199c6.526,0.036 12.901,-0.021 18.895,-0.203l-2.09,-18.393c-0.007,-0.063 0.015,-0.12 0.016,-0.181c-5.688,0.371 -11.971,0.565 -18.843,0.578" style="fill:#059192;fill-rule:nonzero;"/><path d="M167.199,220.753l2.117,18.627c5.262,-0.201 10.185,-0.507 14.598,-0.942l-4.226,-19.204c-3.742,0.613 -7.908,1.103 -12.506,1.466c0.003,0.019 0.015,0.034 0.017,0.053" style="fill:#059192;fill-rule:nonzero;"/><path d="M80.889,217.87c-3.683,-0.373 -6.4,-0.676 -7.835,-0.84l-6.957,19.065c1.372,0.104 3.434,0.255 6.056,0.438l8.736,-18.663Z" style="fill:#059192;fill-rule:nonzero;"/><path d="M90.556,16.652c0.353,0.172 35.397,16.86 82.016,0.582c-11.293,-9.4 -25.688,-14.171 -42.989,-14.171c-5.664,0 -11.734,0.51 -18.038,1.516c-7.71,1.231 -14.735,5.273 -21.022,12.064c0.011,0.005 0.023,0.004 0.033,0.009" style="fill:#f37b32;fill-rule:nonzero;"/><path d="M123.03,258.325c1.567,0.856 3.251,1.775 5.058,2.78c8.473,4.707 10.27,12.688 9.924,19.767c3.317,-10.127 5.952,-24.557 0.903,-38.022c-0.031,-0.084 -0.025,-0.17 -0.04,-0.255c-11.329,-0.185 -22.769,-0.604 -33.198,-1.098c0.779,7.763 5.334,10.263 17.353,16.828" style="fill:#f37b32;fill-rule:nonzero;"/><path d="M141.968,242.639c6.216,17.614 0.571,36.066 -3.598,45.908c8.913,-8.833 25.034,-27.48 24.148,-45.975c-3.832,0.085 -7.781,0.125 -11.803,0.125c-2.887,0 -5.81,-0.021 -8.747,-0.058" style="fill:#f37b32;fill-rule:nonzero;"/><path d="M46.671,147.786c-2.317,-8.661 -5.277,-16.747 -6.704,-20.475c-2.552,5.87 -4.657,12.712 -5.773,20.585c4.466,-1.258 9.54,-0.667 12.477,-0.11" style="fill:#059192;fill-rule:nonzero;"/><path d="M48.311,151.197c-0.087,-0.023 -8.608,-2.4 -14.508,-0.061c-0.392,3.799 -0.562,7.813 -0.442,12.061l13.338,0.533c0.224,-2.551 0.819,-7.651 2.226,-12.504c-0.203,0.029 -0.41,0.028 -0.614,-0.029" style="fill:#059192;fill-rule:nonzero;"/><path d="M56.458,140.057c-0.013,-1.364 -0.017,-2.734 -0.014,-4.109c-0.221,-0.154 -0.416,-0.349 -0.528,-0.616c-0.168,-0.395 -3.789,-8.637 -13.246,-9.254c1.499,3.909 4.788,12.878 7.213,22.275c1.468,-3.882 3.57,-7.188 6.575,-8.296" style="fill:#059192;fill-rule:nonzero;"/><path d="M56.499,130.692c0.177,-9.532 0.761,-19.231 1.78,-28.817c-3.699,3.186 -10.684,10.156 -16.333,21.24c7.492,0.177 12.126,4.388 14.553,7.577" style="fill:#059192;fill-rule:nonzero;"/><path d="M47.732,166.74l-15.73,-0.629c-3.822,0.428 -6.608,1.966 -8.508,4.705c-4.107,5.92 -2.733,15.65 -2.046,19.206l7.26,-1.361c-0.56,-2.128 -1.084,-5.831 0.817,-8.848c1.704,-2.703 4.878,-4.184 9.435,-4.402c4.235,-0.194 7.375,0.962 9.394,3.451c2.899,3.573 2.473,8.834 2.069,11.281l4.703,1.71c2.964,-5.708 3.68,-10.841 2.128,-15.272c-2.196,-6.267 -8.343,-9.307 -9.522,-9.841" style="fill:#5fc7d6;fill-rule:nonzero;"/><path d="M130.924,69.262c-2.411,0 -4.366,1.954 -4.366,4.365c0,2.412 1.955,4.366 4.366,4.366c2.411,0 4.365,-1.954 4.365,-4.366c0,-2.411 -1.954,-4.365 -4.365,-4.365" style="fill:#779daa;fill-rule:nonzero;"/><path d="M134.055,15.158c3.493,-3.983 7.537,-7.577 11.989,-10.467c-5.156,-1.075 -10.639,-1.628 -16.46,-1.628c-5.665,0 -11.734,0.509 -18.039,1.516c-7.709,1.23 -14.735,5.272 -21.022,12.064c0.011,0.005 0.023,0.003 0.033,0.008c0.224,0.11 14.427,6.859 36.678,7.626c2.071,-3.186 4.31,-6.255 6.821,-9.119" style="fill:#f05623;fill-rule:nonzero;"/><path d="M98.504,212.933c-5.779,-17.499 -8.502,-35.88 -8.729,-54.329c-1.792,-3.689 -2.915,-11.558 -2.212,-16.634c0.385,-2.765 1.282,-4.669 2.669,-5.66c0.121,-0.086 0.277,-0.197 0.489,-0.322c0.258,-2.736 0.552,-5.468 0.91,-8.189c0.985,-7.476 2.34,-14.89 4.003,-22.236c-7.259,-9.871 -10.901,-23.098 -9.092,-35.601c2.243,-15.504 12.215,-26.735 27.359,-30.812c1.777,-0.479 3.68,-0.835 5.663,-1.105c1.8,-3.707 3.731,-7.347 5.849,-10.863c-21.979,-1.081 -35.94,-7.758 -36.165,-7.868c-0.255,-0.126 -0.435,-0.328 -0.576,-0.553c-4.206,5.027 -8.065,11.331 -11.553,18.919c-23.725,51.626 -22.36,145.51 -4.161,176.353c2.745,0.319 13.105,1.483 26.811,2.546c-0.43,-1.213 -0.862,-2.424 -1.265,-3.646" style="fill:#56b3c1;fill-rule:nonzero;"/><path d="M112.307,115.749c-1.778,-2.105 -3.449,-4.313 -5.072,-6.53c-3.911,-5.342 -7.705,-10.906 -9.761,-17.199c-3.639,-11.141 -1.305,-23.8 5.099,-33.615c5.03,-7.711 12.384,-13.708 20.683,-17.761c-3.09,0.221 -5.975,0.667 -8.584,1.369c-13.945,3.755 -23.129,14.096 -25.196,28.373c-2.431,16.807 5.578,35.004 19.045,43.268c1.247,0.765 2.512,1.449 3.786,2.095" style="fill:#f05623;fill-rule:nonzero;"/><path d="M155.142,102.98c-6.1,1.669 -12.624,1.061 -18.755,-0.488c-8.207,-2.074 -16.134,-5.927 -21.959,-12.069c-5.824,-6.143 -9.333,-14.749 -8.24,-23.143c0.614,-4.717 2.834,-9.25 6.125,-12.659c-6.513,3.844 -10.742,10.234 -11.912,18.319c-1.823,12.6 4.174,26.237 14.261,32.425c5.914,3.63 12.236,5.472 18.786,5.472l0.003,0c9.569,0 17.751,-3.881 23.461,-8.421c-0.586,0.201 -1.172,0.4 -1.77,0.564" style="fill:#e4e5e5;fill-rule:nonzero;"/><path d="M159.419,156.517c2.508,-0.48 5.115,-1.004 7.145,-2.552c2.031,-1.549 3.273,-4.452 2.122,-6.731c-0.7,-1.384 -2.104,-2.259 -3.494,-2.947c-13.376,-6.625 -29.339,-1.986 -44.224,-3.103c-6.969,-0.522 -14.229,-2.303 -20.757,0.189c-2.507,0.956 -5.098,3.403 -4.158,5.916c0.624,1.665 2.499,2.434 4.178,3.018c4.105,1.43 8.21,2.86 12.315,4.289c4.791,1.669 9.61,3.345 14.612,4.193c10.689,1.812 21.613,-0.232 32.261,-2.272" style="fill:#fff;fill-rule:nonzero;"/><path d="M204.782,117.632c0,0 16.309,20.387 17.792,47.446l-7.166,-1.347c0,0 -3.213,-10.144 -4.695,-14.963c-1.483,-4.818 -7.414,-7.413 -7.414,-7.413l1.483,-23.723Z" style="fill:#007b7c;fill-rule:nonzero;"/><path d="M57.626,118.744c0,0 -7.784,8.525 -11.491,20.387c-3.707,11.861 -5.189,25.205 -5.189,25.205l7.043,1.112c0,0 1.482,-11.12 2.594,-13.714c1.112,-2.595 7.043,-10.379 7.043,-10.379l0,-22.611Z" style="fill:#007b7c;fill-rule:nonzero;"/><path d="M238.609,170.81c0,0 -9.364,-6.103 -19.001,-1.284c-9.637,4.818 -12.973,13.714 -9.637,22.61l-4.078,1.854c0,0 -7.413,-14.456 -0.741,-22.24c6.672,-7.784 31.33,-11.517 33.457,-0.94" style="fill:#56b3c1;fill-rule:nonzero;"/><path d="M30.567,165.448c0,0 14.085,2.224 20.757,11.861c6.672,9.638 0.742,15.198 0.742,15.198l4.077,1.112c0,0 5.931,-7.414 3.707,-17.051c-2.224,-9.637 -10.75,-15.197 -29.283,-11.12" style="fill:#56b3c1;fill-rule:nonzero;"/><path d="M102.777,219.779c0,0 29.724,21.656 69.015,20.915c0,0 -67.833,-1.483 -80.436,-1.112c-12.602,0.371 -27.8,-2.224 -27.8,-2.224l8.526,-21.87l30.695,4.291Z" style="fill:#007b7c;fill-rule:nonzero;"/><path d="M169.197,270.347c0,0 11.491,-17.421 3.707,-19.646c-7.784,-2.224 -11.12,8.526 -11.12,8.526c0,0 -3.336,-13.715 -9.638,-12.603c-6.301,1.112 -8.525,14.827 -8.525,14.827c0,0 -7.784,-14.456 -17.051,-13.344c-9.267,1.112 -0.371,10.008 3.707,15.197c4.077,5.19 9.266,16.31 7.413,22.982c-1.853,6.672 -3.707,1.482 -3.707,1.482c0,0 -1.112,-10.378 -11.12,-14.085c-10.008,-3.707 -22.981,-10.379 -28.912,-12.973c-5.931,-2.595 -8.896,-8.896 -9.637,-11.121c-0.742,-2.224 -1.112,-10.008 -1.112,-10.008c0,0 84.512,3.707 96.744,1.854c0,0 3.336,18.904 -10.749,28.912" style="fill:#f05623;fill-rule:nonzero;"/><path d="M146.957,3.095c0,0 35.214,12.973 48.558,63.014c13.344,50.04 -7.784,149.379 -7.784,149.379l2.622,-1.8c0,0 11.463,-24.517 13.687,-89.384c2.224,-64.867 -13.344,-110.089 -57.083,-121.209" style="fill:#fff;fill-rule:nonzero;"/><path d="M172.002,102.692c5.362,-6.701 6.623,-19.815 3.216,-33.409c-2.718,-10.84 -7.723,-19.238 -12.751,-21.392c-4.887,-2.094 -11.559,-4.266 -18.853,-5.715c8.758,2.555 19.313,6.744 23.359,12.813c7.414,11.12 8.526,31.506 5.931,40.773c-1.507,5.381 -6.762,11.875 -11.921,16.748c4.635,-3.045 8.393,-6.536 11.019,-9.818" style="fill:#fff;fill-rule:nonzero;"/><path d="M206.264,107.624c0,0 15.197,17.051 18.533,31.878c3.337,14.826 1.854,25.946 1.854,25.946l3.707,-1.482c0,0 1.482,-19.646 -4.448,-34.102c-5.931,-14.456 -19.646,-25.947 -19.646,-25.947l0,3.707Z" style="fill:#fff;fill-rule:nonzero;"/><path d="M187.731,215.488l7.043,22.24l4.077,-0.371l-7.413,-21.869l-3.707,0Z" style="fill:#fff;fill-rule:nonzero;"/><path d="M173.885,261.726c-7.187,6.676 -23.76,21.848 -32.209,27.788c9.55,-5.015 24.604,-14.538 32.209,-27.788" style="fill:#fff;fill-rule:nonzero;"/><path d="M144.02,79.831c0,7.868 -4.526,14.246 -10.11,14.246c-5.583,0 -10.109,-6.378 -10.109,-14.246c0,-7.868 4.526,-14.245 10.109,-14.245c5.584,0 10.11,6.377 10.11,14.245" style="fill:#211f1f;fill-rule:nonzero;"/><path d="M135.289,73.627c0,2.411 -1.954,4.366 -4.366,4.366c-2.411,0 -4.365,-1.955 -4.365,-4.366c0,-2.411 1.954,-4.365 4.365,-4.365c2.412,0 4.366,1.954 4.366,4.365" style="fill:#fff;fill-rule:nonzero;"/><path d="M72.958,214.033c5.376,0.624 39.931,4.49 71.707,4.491c20.83,0 36.193,-1.626 45.688,-4.836c2.713,-10.897 32.16,-134.175 -8.459,-186.77c-12.225,-15.829 -29.824,-23.855 -52.31,-23.855c-5.665,0 -11.734,0.51 -18.039,1.516c-13.758,2.197 -25.34,13.334 -34.426,33.101c-23.725,51.626 -22.36,145.509 -4.161,176.353m71.711,7.457l-0.004,0c-34.581,-0.002 -72.403,-4.552 -72.781,-4.597c-0.448,-0.055 -0.847,-0.312 -1.085,-0.697c-18.894,-30.76 -20.586,-127.068 3.626,-179.754c9.524,-20.723 21.856,-32.428 36.654,-34.791c6.458,-1.031 12.684,-1.553 18.505,-1.553c23.453,0 41.843,8.414 54.659,25.01c18.165,23.524 25.159,62.698 20.783,116.432c-3.248,39.871 -11.909,73.328 -11.996,73.661c-0.124,0.474 -0.473,0.856 -0.934,1.021c-9.75,3.496 -25.708,5.268 -47.427,5.268" style="fill:#211f1f;fill-rule:nonzero;"/><path d="M131.393,27.333c-25.402,0 -41.9,-7.9 -42.145,-8.02c-0.734,-0.362 -1.037,-1.25 -0.676,-1.984c0.362,-0.737 1.254,-1.035 1.984,-0.677c0.357,0.173 36.328,17.333 83.878,-0.063c0.767,-0.279 1.622,0.113 1.903,0.884c0.28,0.768 -0.115,1.62 -0.884,1.902c-16.309,5.967 -31.307,7.958 -44.06,7.958" style="fill:#211f1f;fill-rule:nonzero;"/><path d="M127.527,40.479c-4.751,0 -9.076,0.517 -12.856,1.535c-13.945,3.754 -23.129,14.095 -25.196,28.372c-2.431,16.807 5.578,35.005 19.045,43.268c7.882,4.838 16.309,7.292 25.043,7.292l0.005,0c17.589,0 31.696,-9.833 38.433,-18.254c5.362,-6.701 6.623,-19.815 3.216,-33.409c-2.718,-10.84 -7.723,-19.238 -12.75,-21.392c-8.362,-3.582 -21.932,-7.412 -34.94,-7.412m6.041,83.432l-0.005,0c-9.289,-0.001 -18.238,-2.602 -26.595,-7.729c-14.43,-8.855 -23.021,-28.294 -20.426,-46.22c2.243,-15.505 12.215,-26.735 27.358,-30.812c4.032,-1.086 8.617,-1.636 13.627,-1.636c13.457,0 27.476,3.952 36.107,7.652c5.939,2.544 11.479,11.509 14.459,23.395c2.886,11.509 3.408,27.004 -3.775,35.984c-7.148,8.934 -22.11,19.366 -40.75,19.366" style="fill:#211f1f;fill-rule:nonzero;"/><path d="M128.875,50.588c-3.568,0 -6.814,0.388 -9.649,1.151c-10.421,2.805 -17.282,10.532 -18.826,21.201c-1.823,12.6 4.174,26.236 14.261,32.425c5.915,3.629 12.236,5.471 18.786,5.471l0.003,0c13.2,0 23.784,-7.377 28.839,-13.696c3.995,-4.991 4.924,-14.803 2.369,-24.998c-2.002,-7.984 -5.801,-14.401 -9.454,-15.966c-6.303,-2.701 -16.53,-5.588 -26.329,-5.588m4.575,63.214l-0.003,0c-7.106,0 -13.949,-1.988 -20.339,-5.909c-11.049,-6.781 -17.628,-21.66 -15.643,-35.378c1.722,-11.896 9.372,-20.512 20.991,-23.64c3.085,-0.831 6.591,-1.252 10.419,-1.252c10.248,0 20.924,3.01 27.496,5.828c5.501,2.355 9.372,10.827 11.164,17.97c2.206,8.802 2.594,20.667 -2.93,27.573c-5.466,6.831 -16.904,14.808 -31.155,14.808" style="fill:#211f1f;fill-rule:nonzero;"/><path d="M92.748,157.869c3.446,1.674 37.343,3.778 61.15,3.778l0.003,0c15.284,0 17.629,-0.87 17.944,-1.044c1.425,-0.792 2.347,-3.1 2.531,-6.332c0.3,-5.307 -1.478,-10.702 -3.268,-11.982c-2.652,-1.697 -35.8,-5.706 -60.31,-5.706c-14.304,0 -17.943,1.496 -18.844,2.139c-0.667,0.477 -1.197,1.81 -1.453,3.654c-0.743,5.347 0.857,13.48 2.247,15.493m61.153,6.743l-0.003,0c-14.357,0 -60.707,-1.432 -63.37,-4.761c-2.212,-2.767 -3.763,-12.125 -2.965,-17.882c0.385,-2.765 1.281,-4.669 2.668,-5.66c0.931,-0.666 3.768,-2.691 20.567,-2.691c21.906,0 58.429,3.685 62.033,6.259c3.207,2.291 4.809,9.203 4.505,14.562c-0.245,4.331 -1.684,7.441 -4.052,8.756c-0.697,0.388 -2.554,1.417 -19.383,1.417" style="fill:#211f1f;fill-rule:nonzero;"/><path d="M173.757,153.271c-0.022,0 -0.042,0 -0.064,-0.001l-84.447,-3.568c-0.818,-0.035 -1.454,-0.725 -1.419,-1.544c0.035,-0.819 0.746,-1.44 1.543,-1.419l84.448,3.568c0.818,0.035 1.454,0.726 1.419,1.544c-0.034,0.797 -0.691,1.42 -1.48,1.42" style="fill:#211f1f;fill-rule:nonzero;"/><path d="M103.567,161.001l-0.043,0c-0.818,-0.023 -1.463,-0.705 -1.441,-1.525l0.663,-23.786c0.025,-0.818 0.717,-1.399 1.525,-1.441c0.818,0.023 1.462,0.705 1.44,1.525l-0.663,23.786c-0.023,0.804 -0.682,1.441 -1.481,1.441" style="fill:#211f1f;fill-rule:nonzero;"/><path d="M121.891,161.003l-0.044,0c-0.818,-0.023 -1.462,-0.705 -1.44,-1.525l0.663,-23.786c0.025,-0.818 0.702,-1.4 1.525,-1.441c0.818,0.023 1.462,0.705 1.44,1.525l-0.663,23.786c-0.023,0.804 -0.682,1.441 -1.481,1.441" style="fill:#211f1f;fill-rule:nonzero;"/><path d="M140.958,162.788l-0.043,0c-0.819,-0.023 -1.463,-0.705 -1.441,-1.525l0.663,-23.786c0.023,-0.818 0.675,-1.476 1.525,-1.441c0.818,0.023 1.462,0.705 1.44,1.525l-0.663,23.786c-0.023,0.804 -0.682,1.441 -1.481,1.441" style="fill:#211f1f;fill-rule:nonzero;"/><path d="M158.985,164.573l-0.043,0c-0.818,-0.023 -1.463,-0.705 -1.441,-1.525l0.663,-23.786c0.025,-0.818 0.714,-1.471 1.525,-1.441c0.818,0.023 1.462,0.705 1.44,1.525l-0.663,23.786c-0.023,0.804 -0.682,1.441 -1.481,1.441" style="fill:#211f1f;fill-rule:nonzero;"/><path d="M150.714,242.698c-38.788,0.001 -83.949,-3.568 -86.799,-3.795c-0.462,-0.038 -0.879,-0.288 -1.129,-0.678c-0.251,-0.389 -0.304,-0.874 -0.145,-1.309l8.029,-22.004c0.281,-0.77 1.132,-1.162 1.901,-0.884c0.769,0.28 1.165,1.132 0.885,1.901l-7.359,20.166c14.274,1.076 102.741,7.35 130.755,0.303l-6.67,-21.125c-0.248,-0.781 0.185,-1.613 0.967,-1.859c0.779,-0.251 1.614,0.185 1.859,0.967l7.137,22.598c0.12,0.379 0.082,0.792 -0.106,1.144c-0.187,0.351 -0.508,0.613 -0.892,0.725c-9.881,2.889 -28.303,3.85 -48.433,3.85" style="fill:#211f1f;fill-rule:nonzero;"/><path d="M133.613,296.443c-0.368,0 -0.731,-0.138 -1.011,-0.398c-0.417,-0.388 -0.574,-0.98 -0.405,-1.525c4.797,-15.419 -13.854,-22.977 -28.841,-29.05c-3.016,-1.223 -5.866,-2.377 -8.284,-3.511c-15.096,-7.076 -12.904,-23.251 -12.879,-23.413c0.119,-0.809 0.876,-1.383 1.682,-1.251c0.81,0.119 1.369,0.87 1.251,1.68c-0.081,0.576 -1.866,14.172 11.206,20.3c2.345,1.1 5.159,2.24 8.137,3.447c14.4,5.835 33.821,13.703 31.262,29.709c10.05,-4.56 44.992,-22.459 42.789,-49.983c-0.065,-0.816 0.545,-1.532 1.36,-1.597c0.821,-0.06 1.532,0.543 1.597,1.36c2.732,34.156 -45.279,53.331 -47.324,54.131c-0.175,0.068 -0.358,0.101 -0.54,0.101" style="fill:#211f1f;fill-rule:nonzero;"/><path d="M133.613,296.443c-0.342,0 -0.683,-0.117 -0.96,-0.352c-0.546,-0.465 -0.682,-1.254 -0.323,-1.875c0.158,-0.271 15.589,-27.354 6.585,-51.367c-0.286,-0.765 0.102,-1.62 0.869,-1.908c0.76,-0.281 1.622,0.1 1.908,0.867c6.697,17.862 0.913,36.743 -3.323,46.739c9.076,-8.994 25.639,-28.165 24.095,-46.988c-0.066,-0.816 0.542,-1.532 1.357,-1.6c0.828,-0.043 1.533,0.542 1.6,1.357c2.231,27.225 -29.513,53.676 -30.865,54.79c-0.274,0.224 -0.608,0.337 -0.943,0.337" style="fill:#211f1f;fill-rule:nonzero;"/><path d="M133.61,296.487c-0.818,0 -1.48,-0.707 -1.48,-1.526c0,-0.456 0.148,-0.966 0.575,-2.375c2.844,-9.377 5.31,-22.574 -6.057,-28.889c-1.802,-1 -3.479,-1.917 -5.04,-2.77c-12.39,-6.767 -18.045,-9.857 -18.91,-19.354c-0.074,-0.815 0.527,-1.538 1.342,-1.612c0.837,-0.082 1.537,0.527 1.612,1.343c0.721,7.921 5.256,10.4 17.378,17.021c1.567,0.856 3.251,1.776 5.058,2.78c14.773,8.207 9.265,26.373 7.455,32.341c-0.198,0.656 -0.424,1.399 -0.452,1.6c0,0.82 -0.661,1.441 -1.481,1.441" style="fill:#211f1f;fill-rule:nonzero;"/><path d="M72.954,239.799c-0.21,0 -0.424,-0.045 -0.627,-0.141c-0.741,-0.345 -1.061,-1.229 -0.714,-1.97l9.813,-20.963c0.347,-0.741 1.229,-1.064 1.97,-0.714c0.742,0.346 1.062,1.229 0.714,1.971l-9.812,20.963c-0.252,0.538 -0.787,0.854 -1.344,0.854" style="fill:#211f1f;fill-rule:nonzero;"/><path d="M185.796,241.583c-0.68,0 -1.294,-0.472 -1.446,-1.164l-4.908,-22.301c-0.176,-0.799 0.331,-1.591 1.13,-1.766c0.795,-0.173 1.59,0.328 1.766,1.129l4.907,22.301c0.177,0.799 -0.33,1.591 -1.129,1.766c-0.107,0.023 -0.214,0.035 -0.32,0.035" style="fill:#211f1f;fill-rule:nonzero;"/><path d="M97.041,240.245c-0.107,0 -0.214,-0.012 -0.323,-0.035c-0.799,-0.178 -1.303,-0.97 -1.126,-1.769l4.459,-20.071c0.178,-0.798 0.978,-1.29 1.77,-1.127c0.799,0.178 1.303,0.97 1.126,1.77l-4.46,20.071c-0.153,0.69 -0.767,1.161 -1.446,1.161" style="fill:#211f1f;fill-rule:nonzero;"/><path d="M167.955,242.029c-0.744,0 -1.386,-0.559 -1.471,-1.315l-2.23,-19.625c-0.093,-0.814 0.491,-1.549 1.305,-1.64c0.831,-0.119 1.549,0.492 1.64,1.304l2.23,19.625c0.093,0.814 -0.491,1.55 -1.305,1.641c-0.057,0.007 -0.114,0.01 -0.169,0.01" style="fill:#211f1f;fill-rule:nonzero;"/><path d="M118.004,240.691c-0.046,0 -0.094,-0.001 -0.142,-0.007c-0.815,-0.077 -1.413,-0.801 -1.335,-1.616l1.784,-18.733c0.077,-0.814 0.78,-1.429 1.616,-1.335c0.815,0.076 1.413,0.8 1.335,1.615l-1.784,18.734c-0.073,0.767 -0.718,1.342 -1.474,1.342" style="fill:#211f1f;fill-rule:nonzero;"/><path d="M146.1,242.475c-0.746,0 -1.389,-0.56 -1.473,-1.319l-2.229,-20.071c-0.09,-0.814 0.496,-1.547 1.31,-1.638c0.817,-0.088 1.548,0.497 1.638,1.311l2.229,20.071c0.09,0.813 -0.496,1.546 -1.31,1.637c-0.055,0.006 -0.111,0.009 -0.165,0.009" style="fill:#211f1f;fill-rule:nonzero;"/><path d="M214.035,166.753c-0.779,0 -1.43,-0.608 -1.478,-1.393c-0.48,-7.854 -3.083,-20.927 -8.03,-22.576c-0.777,-0.258 -1.196,-1.097 -0.937,-1.875c0.259,-0.776 1.09,-1.199 1.875,-0.937c7.48,2.492 9.484,18.513 9.943,23.759l13.339,-0.533c1.302,-43.245 -23.579,-57.839 -23.834,-57.982c-0.711,-0.402 -0.964,-1.306 -0.562,-2.018c0.401,-0.713 1.302,-0.969 2.016,-0.566c1.113,0.624 27.247,15.83 25.294,62.055c-0.032,0.771 -0.652,1.388 -1.422,1.419l-16.143,0.645c-0.02,0.002 -0.041,0.002 -0.061,0.002" style="fill:#211f1f;fill-rule:nonzero;"/><path d="M228.888,151.254c-0.184,0 -0.369,-0.033 -0.55,-0.106c-5.903,-2.361 -14.455,0.026 -14.54,0.05c-0.514,0.143 -1.06,0.005 -1.438,-0.362c-0.381,-0.368 -0.536,-0.911 -0.407,-1.424c2.478,-9.911 6.761,-19.677 8.743,-23.931c-9.546,1.002 -14.299,11.23 -14.349,11.342c-0.338,0.744 -1.219,1.072 -1.961,0.739c-0.745,-0.337 -1.078,-1.213 -0.742,-1.959c0.254,-0.566 6.382,-13.793 19.51,-13.142c0.5,0.027 0.952,0.302 1.204,0.735c0.251,0.432 0.267,0.962 0.044,1.409c-0.059,0.12 -5.657,11.385 -8.951,23.178c3.283,-0.624 9.21,-1.3 13.987,0.611c0.76,0.304 1.131,1.167 0.827,1.928c-0.232,0.58 -0.789,0.932 -1.377,0.932" style="fill:#211f1f;fill-rule:nonzero;"/><path d="M206.287,195.165c-0.523,0 -1.024,-0.278 -1.292,-0.756c-3.905,-6.94 -4.891,-13.279 -2.93,-18.839c2.884,-8.182 11.074,-11.538 11.421,-11.677c0.759,-0.307 1.617,0.066 1.924,0.824c0.306,0.758 -0.062,1.621 -0.821,1.928c-0.072,0.029 -7.316,3.028 -9.735,9.937c-1.553,4.429 -0.836,9.562 2.128,15.27l4.703,-1.71c-0.404,-2.447 -0.83,-7.707 2.069,-11.282c2.02,-2.489 5.178,-3.647 9.393,-3.449c4.556,0.217 7.731,1.698 9.436,4.402c1.901,3.017 1.377,6.719 0.816,8.848l7.259,1.361c0.686,-3.562 2.053,-13.307 -2.049,-19.212c-1.914,-2.757 -4.723,-4.298 -8.588,-4.712c-0.813,-0.087 -1.403,-0.818 -1.316,-1.632c0.087,-0.812 0.797,-1.413 1.632,-1.316c4.707,0.504 8.311,2.514 10.712,5.974c5.836,8.412 2.342,22.398 2.191,22.989c-0.196,0.757 -0.946,1.228 -1.711,1.089l-10.332,-1.938c-0.44,-0.082 -0.819,-0.359 -1.032,-0.754c-0.212,-0.395 -0.235,-0.865 -0.061,-1.277c0.019,-0.045 1.933,-4.739 -0.036,-7.848c-1.16,-1.83 -3.536,-2.844 -7.063,-3.012c-3.212,-0.163 -5.556,0.639 -6.947,2.356c-2.384,2.938 -1.699,8.211 -1.233,9.997c0.193,0.74 -0.208,1.505 -0.928,1.766l-7.103,2.583c-0.167,0.061 -0.338,0.09 -0.507,0.09" style="fill:#211f1f;fill-rule:nonzero;"/><path d="M48.072,166.753c-0.02,0 -0.041,0 -0.061,-0.002l-16.143,-0.645c-0.77,-0.031 -1.39,-0.648 -1.422,-1.419c-1.95,-46.143 28.448,-67.113 28.755,-67.32c0.676,-0.456 1.597,-0.277 2.056,0.403c0.457,0.678 0.276,1.599 -0.401,2.057c-0.291,0.197 -28.729,19.905 -27.495,63.371l13.338,0.533c0.459,-5.246 2.463,-21.267 9.943,-23.759c0.785,-0.262 1.616,0.161 1.875,0.937c0.26,0.778 -0.16,1.617 -0.936,1.875c-4.948,1.649 -7.551,14.722 -8.031,22.576c-0.047,0.785 -0.699,1.393 -1.478,1.393" style="fill:#211f1f;fill-rule:nonzero;"/><path d="M33.22,151.254c-0.588,0 -1.145,-0.352 -1.377,-0.932c-0.304,-0.761 0.067,-1.624 0.827,-1.928c4.782,-1.912 10.725,-1.229 14.001,-0.608c-3.15,-11.779 -7.503,-22.525 -7.549,-22.64c-0.181,-0.444 -0.136,-0.948 0.121,-1.353c0.257,-0.406 0.694,-0.661 1.173,-0.687c13.139,-0.658 18.186,10.964 18.235,11.081c0.316,0.756 -0.04,1.625 -0.796,1.941c-0.751,0.315 -1.623,-0.041 -1.939,-0.795c-0.168,-0.396 -3.789,-8.637 -13.245,-9.254c1.555,4.056 5.04,13.557 7.484,23.333c0.129,0.513 -0.026,1.056 -0.407,1.424c-0.379,0.367 -0.927,0.505 -1.436,0.362c-0.087,-0.024 -8.641,-2.411 -14.542,-0.05c-0.179,0.073 -0.366,0.106 -0.55,0.106" style="fill:#211f1f;fill-rule:nonzero;"/><path d="M55.82,195.165c-0.169,0 -0.34,-0.029 -0.507,-0.09l-7.103,-2.583c-0.719,-0.261 -1.12,-1.025 -0.928,-1.765c0.015,-0.065 1.627,-6.485 -1.238,-10.005c-1.393,-1.711 -3.742,-2.506 -6.943,-2.349c-3.527,0.168 -5.903,1.181 -7.062,3.011c-1.969,3.11 -0.055,7.804 -0.035,7.852c0.171,0.412 0.148,0.881 -0.065,1.275c-0.213,0.394 -0.59,0.672 -1.029,0.753l-10.332,1.938c-0.771,0.139 -1.517,-0.332 -1.711,-1.089c-0.152,-0.591 -3.645,-14.577 2.19,-22.989c2.4,-3.459 6.006,-5.47 10.713,-5.974c0.822,-0.078 1.546,0.502 1.632,1.316c0.087,0.814 -0.503,1.545 -1.316,1.632c-3.868,0.414 -6.678,1.958 -8.592,4.717c-4.108,5.921 -2.734,15.651 -2.046,19.207l7.26,-1.361c-0.561,-2.129 -1.085,-5.831 0.816,-8.848c1.704,-2.704 4.878,-4.185 9.435,-4.402c4.235,-0.194 7.376,0.961 9.394,3.45c2.899,3.574 2.473,8.834 2.069,11.281l4.703,1.71c2.964,-5.708 3.681,-10.841 2.128,-15.271c-2.421,-6.908 -9.663,-9.907 -9.735,-9.936c-0.759,-0.307 -1.127,-1.17 -0.821,-1.928c0.305,-0.758 1.167,-1.13 1.924,-0.824c0.347,0.139 8.535,3.495 11.42,11.677c1.96,5.56 0.976,11.899 -2.928,18.839c-0.269,0.478 -0.77,0.756 -1.293,0.756" style="fill:#211f1f;fill-rule:nonzero;"/></svg>